<svg viewBox="0 0 100 76" fill="none" xmlns="http://www.w3.org/2000/svg">
<path d="M7.24414 18.8989V57.4571H92.7564V18.8989H7.24414ZM30.8977 34.5896H29.1506V36.3366C29.1506 37.9546 27.8389 39.2663 26.2209 39.2663C24.6029 39.2663 23.2912 37.9546 23.2912 36.3366V34.5896H21.5441C19.9262 34.5896 18.6145 33.2778 18.6145 31.6599C18.6145 30.0419 19.9262 28.7302 21.5441 28.7302H23.2912V26.9831C23.2912 25.3651 24.6029 24.0534 26.2209 24.0534C27.8389 24.0534 29.1506 25.3651 29.1506 26.9831V28.7302H30.8977C32.5156 28.7302 33.8273 30.0419 33.8273 31.6599C33.8273 33.278 32.5158 34.5896 30.8977 34.5896ZM59.6236 41.4835L47.6562 51.9191C47.101 52.403 46.415 52.6405 45.7318 52.6405C44.9146 52.6405 44.1018 52.3007 43.5225 51.6362C42.4592 50.4167 42.5855 48.5661 43.8051 47.5026L49.8805 42.205H42.3025C41.0529 42.205 39.9408 41.4124 39.5332 40.2312C39.1254 39.0499 39.5119 37.7401 40.4953 36.9694L52.9092 27.2407C54.1826 26.2429 56.0242 26.4657 57.0225 27.7396C58.0203 29.0132 57.7973 30.8546 56.5236 31.8526L50.7904 36.3456H57.6979C58.9193 36.3456 60.0127 37.1034 60.4412 38.2472C60.8699 39.3909 60.5441 40.6806 59.6236 41.4835ZM78.4566 33.613H69.1029C67.485 33.613 66.1732 32.3013 66.1732 30.6833C66.1732 29.0653 67.485 27.7536 69.1029 27.7536H78.4566C80.0746 27.7536 81.3863 29.0653 81.3863 30.6833C81.3863 32.3015 80.0746 33.613 78.4566 33.613Z" fill="#D32420"/>
<path d="M97.0703 75.7762H2.92969C1.31172 75.7762 0 74.4644 0 72.8465V66.2461C0 64.6281 1.31172 63.3164 2.92969 63.3164H97.0703C98.6883 63.3164 100 64.6281 100 66.2461V72.8465C100 74.4644 98.6883 75.7762 97.0703 75.7762Z" fill="#D32420"/>
<path d="M97.0703 13.0394H2.92969C1.31172 13.0394 0 11.7276 0 10.1097V3.50928C0 1.89131 1.31172 0.57959 2.92969 0.57959H97.0703C98.6883 0.57959 100 1.89131 100 3.50928V10.1097C100 11.7276 98.6883 13.0394 97.0703 13.0394Z" fill="#D32420"/>
</svg>
