<svg viewBox="0 0 96 100" fill="none" xmlns="http://www.w3.org/2000/svg">
<path d="M93.1024 33.8551H91.1207V28.1714C91.1207 27.6224 90.682 27.1796 90.1371 27.1796H83.784V0.987755C83.782 0.440816 83.3411 0 82.7901 0H82.5983H13.4085H13.2187C12.6697 0 12.2289 0.440816 12.2289 0.987755V27.1796H5.86766C5.32276 27.1796 4.87991 27.6224 4.87991 28.1714V33.8551H2.90236C1.80848 33.8551 0.924805 34.7429 0.924805 35.8327V46.2122C0.924805 47.302 1.80848 48.1898 2.90236 48.1898H8.83705C9.92685 48.1898 10.8146 47.302 10.8146 46.2122V35.8327C10.8146 34.7429 9.92685 33.8551 8.83705 33.8551H6.85746V29.1592H12.2248V66.5694C11.0758 66.9755 10.2452 68.0653 10.2452 69.351V80.8816C10.2452 81.8633 10.7268 82.7265 11.4656 83.2633C10.7289 83.8082 10.2452 84.6694 10.2452 85.6551V90.2898C10.2452 91.9327 11.5738 93.2551 13.2105 93.2551H18.5105V98.0184C18.5105 99.1102 19.6962 100 21.1677 100H30.0228C31.4922 100 32.6799 99.1102 32.6799 98.0184V93.2551H63.3268V98.0184C63.3268 99.1102 64.5105 100 65.984 100H74.8391C76.3064 100 77.4983 99.1102 77.4983 98.0184V93.2551H82.7922C84.433 93.2551 85.7534 91.9265 85.7534 90.2898V85.6551C85.7534 84.6735 85.2758 83.8102 84.535 83.2653C85.2718 82.7286 85.7534 81.8653 85.7534 80.8837V69.3531C85.7534 68.0653 84.9289 66.9775 83.7779 66.5714V29.1592H89.1452V33.8551H87.1656C86.0718 33.8551 85.186 34.7429 85.186 35.8327V46.2122C85.186 47.302 86.0718 48.1898 87.1656 48.1898H93.0942C94.1901 48.1898 95.0758 47.302 95.0758 46.2122V35.8327C95.0738 34.7408 94.1942 33.8551 93.1024 33.8551ZM14.2003 29.1592H16.3677V66.3877H14.2003V29.1592ZM17.6473 90.7694C16.1452 90.7694 14.9289 89.5531 14.9289 88.051C14.9289 86.5531 16.1452 85.3286 17.6473 85.3286C19.1493 85.3286 20.3656 86.5531 20.3656 88.051C20.3636 89.5551 19.1534 90.7694 17.6473 90.7694ZM24.8962 90.7694C23.3962 90.7694 22.1779 89.5531 22.1779 88.051C22.1779 86.5531 23.3962 85.3286 24.8962 85.3286C26.3983 85.3286 27.6166 86.5531 27.6166 88.051C27.6187 89.5551 26.3962 90.7694 24.8962 90.7694ZM28.0636 79.5714H14.884V71.498H28.0636V79.5714ZM24.2779 46.2653V26.1918H45.035V46.2653H24.2779ZM63.6534 83.6041H32.3513V80.0122H63.6534V83.6041ZM63.6534 77.9367H32.3513V73.4367H63.6534V77.9367ZM63.6534 71.3633H32.3513V66.8694H63.6534V71.3633ZM63.6534 64.7918H32.3513V60.2939H63.6534V64.7918ZM50.9656 46.2653V26.1918H71.7248V46.2653H50.9656ZM71.1064 90.7735C69.6085 90.7735 68.3881 89.551 68.3881 88.0469C68.3881 86.551 69.6085 85.3286 71.1064 85.3286C72.6105 85.3286 73.8289 86.551 73.8289 88.0469C73.8248 89.5551 72.6085 90.7735 71.1064 90.7735ZM78.3534 90.7735C76.8513 90.7735 75.635 89.551 75.635 88.0469C75.635 86.551 76.8513 85.3286 78.3534 85.3286C79.8554 85.3286 81.0718 86.551 81.0718 88.0469C81.0718 89.5551 79.8554 90.7735 78.3534 90.7735ZM81.1187 79.5714H67.935V71.498H81.1187V79.5714ZM81.8003 66.3877H79.633V29.1592H81.8003V66.3877ZM81.8003 27.1796H79.633V22.2347C79.633 20.0531 77.8636 18.2796 75.6779 18.2796H20.3248C18.1391 18.2796 16.3697 20.049 16.3697 22.2347V27.1796H14.2003V12.3571H81.8003V27.1796Z" fill="#D32420"/>
</svg>
