<svg width="34" height="37" viewBox="0 0 34 37" fill="none" xmlns="http://www.w3.org/2000/svg">
<path d="M33.9844 8.70656C33.9844 8.56625 33.9532 8.42595 33.8909 8.29344C33.7662 8.02843 33.5245 7.84915 33.2595 7.79459L17.3819 0.0935351C17.1247 -0.0311784 16.8207 -0.0311784 16.5635 0.0935351L0.530032 7.86474C0.218249 8.01284 0.0155892 8.32462 0 8.67538V8.68317C0 8.69097 0 8.69876 0 8.71435V28.2164C0 28.575 0.202659 28.9023 0.530032 29.0582L16.5635 36.8294C16.5713 36.8294 16.5713 36.8294 16.5791 36.8372C16.6025 36.845 16.6259 36.8528 16.6492 36.8684C16.657 36.8684 16.6648 36.8762 16.6804 36.8762C16.7038 36.884 16.7272 36.8918 16.7506 36.8996C16.7584 36.8996 16.7662 36.9074 16.774 36.9074C16.7973 36.9152 16.8285 36.9152 16.8519 36.923C16.8597 36.923 16.8675 36.923 16.8753 36.923C16.9065 36.923 16.9454 36.9308 16.9766 36.9308C17.0078 36.9308 17.0468 36.9308 17.0779 36.923C17.0857 36.923 17.0935 36.923 17.1013 36.923C17.1247 36.923 17.1559 36.9152 17.1793 36.9074C17.1871 36.9074 17.1949 36.8996 17.2027 36.8996C17.226 36.8918 17.2494 36.884 17.2728 36.8762C17.2806 36.8762 17.2884 36.8684 17.304 36.8684C17.3274 36.8606 17.3508 36.8528 17.3741 36.8372C17.3819 36.8372 17.3819 36.8372 17.3897 36.8294L33.47 29.0348C33.7895 28.879 34 28.5516 34 28.193V8.72994C33.9844 8.72215 33.9844 8.71435 33.9844 8.70656ZM16.9688 1.97203L30.8744 8.71435L25.7533 11.2008L11.8478 4.45851L16.9688 1.97203ZM16.9688 15.4567L3.06327 8.71435L9.70426 5.49519L23.6098 12.2375L16.9688 15.4567ZM1.8707 10.2187L16.0335 17.0857V34.4911L1.8707 27.624V10.2187ZM17.9042 34.4911V17.0857L24.553 13.8588V18.4108C24.553 18.9253 24.9739 19.3462 25.4883 19.3462C26.0028 19.3462 26.4237 18.9253 26.4237 18.4108V12.9468L32.1137 10.1875V27.5928L17.9042 34.4911Z" fill="black"/>
</svg>
