<svg viewBox="0 0 38 40" fill="none" xmlns="http://www.w3.org/2000/svg">
<path d="M10.5941 26.337H32.6341C35.1332 26.337 37.172 24.2982 37.172 21.7991V12.526C37.172 12.5178 37.172 12.5013 37.172 12.4931C37.172 12.4684 37.172 12.452 37.172 12.4273C37.172 12.4109 37.172 12.3944 37.1638 12.378C37.1638 12.3616 37.1556 12.3369 37.1556 12.3205C37.1556 12.304 37.1474 12.2876 37.1474 12.2711C37.1391 12.2547 37.1391 12.2382 37.1309 12.2136C37.1227 12.1971 37.1227 12.1807 37.1145 12.1643C37.1062 12.1478 37.1062 12.1314 37.098 12.1149C37.0898 12.0985 37.0816 12.082 37.0734 12.0574C37.0651 12.0409 37.0569 12.0245 37.0487 12.0163C37.0405 11.9998 37.0323 11.9834 37.024 11.967C37.0158 11.9505 37.0076 11.9423 36.9994 11.9259C36.9912 11.9094 36.9747 11.893 36.9665 11.8765C36.9583 11.8601 36.9501 11.8519 36.9336 11.8354C36.9254 11.819 36.9089 11.8108 36.9007 11.7943C36.8925 11.7779 36.8761 11.7697 36.8678 11.7532C36.8596 11.7368 36.8432 11.7286 36.835 11.7203C36.8185 11.7039 36.8103 11.6957 36.7939 11.6792C36.7774 11.671 36.7692 11.6546 36.7528 11.6463C36.7363 11.6381 36.7199 11.6217 36.7034 11.6135C36.687 11.6052 36.6788 11.597 36.6623 11.5888C36.6459 11.5806 36.6294 11.5724 36.613 11.5559C36.5966 11.5477 36.5801 11.5395 36.5637 11.5313C36.5472 11.523 36.5308 11.5148 36.5143 11.5066C36.4979 11.4984 36.4815 11.4902 36.465 11.4819C36.4486 11.4737 36.4321 11.4737 36.4157 11.4655C36.3993 11.4573 36.3746 11.449 36.3582 11.449C36.3417 11.449 36.3253 11.4408 36.317 11.4408C36.2924 11.4326 36.2759 11.4326 36.2513 11.4326C36.2431 11.4326 36.2348 11.4244 36.2184 11.4244L8.28403 7.56881V3.67214C8.28403 3.63104 8.28403 3.58993 8.2758 3.55705C8.2758 3.54883 8.2758 3.54061 8.26758 3.52417C8.26758 3.4995 8.25936 3.47484 8.25936 3.45018C8.25114 3.42552 8.25114 3.40907 8.24292 3.38441C8.24292 3.36797 8.2347 3.35975 8.2347 3.34331C8.22648 3.31865 8.21826 3.29398 8.21004 3.26932C8.21004 3.2611 8.20182 3.24466 8.20182 3.23644C8.1936 3.21177 8.18538 3.19533 8.16893 3.17067C8.16071 3.16245 8.16071 3.14601 8.15249 3.13779C8.14427 3.12135 8.13605 3.1049 8.11961 3.08846C8.11139 3.07202 8.10317 3.0638 8.09495 3.04736C8.08673 3.03092 8.0785 3.0227 8.07028 3.00625C8.06206 2.98981 8.04562 2.97337 8.0374 2.95693C8.02918 2.94871 8.02096 2.94049 8.01274 2.93227C7.9963 2.91582 7.97985 2.89938 7.96341 2.88294C7.95519 2.87472 7.94697 2.8665 7.93875 2.85828C7.92231 2.84184 7.90587 2.8254 7.8812 2.80895C7.87298 2.80073 7.85654 2.79251 7.84832 2.78429C7.83188 2.76785 7.81544 2.75963 7.799 2.74319C7.77433 2.72675 7.74967 2.7103 7.73323 2.70208C7.72501 2.69386 7.71679 2.69386 7.70857 2.68564C7.67568 2.6692 7.63458 2.65276 7.6017 2.63632L1.54295 0.0878601C0.97571 -0.150544 0.326264 0.112523 0.0878601 0.67976C-0.150544 1.247 0.112523 1.89644 0.67976 2.13485L6.05618 4.40379V9.43494V10.2324V16.3487V21.8155V28.721C6.05618 31.0228 7.78255 32.9301 10.0104 33.2178C9.60758 33.8919 9.36917 34.6811 9.36917 35.5196C9.36917 37.9941 11.3833 40 13.8495 40C16.3158 40 18.3299 37.9859 18.3299 35.5196C18.3299 34.6975 18.1079 33.9166 17.7133 33.2589H27.6934C27.2988 33.9248 27.0768 34.6975 27.0768 35.5196C27.0768 37.9941 29.0909 40 31.5572 40C34.0234 40 36.0375 37.9859 36.0375 35.5196C36.0375 33.0534 34.0234 31.0393 31.5572 31.0393H10.5941C9.31163 31.0393 8.2758 29.9952 8.2758 28.721V25.7122C8.94991 26.1068 9.74733 26.337 10.5941 26.337ZM16.1185 35.5114C16.1185 36.761 15.0991 37.7721 13.8577 37.7721C12.6164 37.7721 11.597 36.7528 11.597 35.5114C11.597 34.2701 12.6164 33.2507 13.8577 33.2507C15.0991 33.2507 16.1185 34.2618 16.1185 35.5114ZM33.8261 35.5114C33.8261 36.761 32.8068 37.7721 31.5654 37.7721C30.3241 37.7721 29.3047 36.7528 29.3047 35.5114C29.3047 34.2701 30.3241 33.2507 31.5654 33.2507C32.8068 33.2507 33.8261 34.2618 33.8261 35.5114ZM32.6341 24.1173H10.5941C9.31163 24.1173 8.2758 23.0733 8.2758 21.7991V16.3322V10.2159V9.80488L34.9524 13.4796V21.7908C34.9524 23.0815 33.9083 24.1173 32.6341 24.1173Z" fill="black"/>
</svg>
