<svg viewBox="0 0 100 76" fill="none" xmlns="http://www.w3.org/2000/svg">
<path d="M98.5795 19.8665H87.9709C87.5566 19.8665 87.1893 20.0563 86.9301 20.342L79.1869 7.7354C79.1441 7.67009 79.0971 7.60682 79.0379 7.55172C77.2807 5.78838 73.9479 4.40873 71.456 4.40873H69.6865V0.343262H65.1333V4.40873H34.8667V0.343262H30.3114V4.40873H29.0645C26.5725 4.40873 23.2377 5.78022 21.4682 7.52927C21.4172 7.58029 21.3682 7.63744 21.3274 7.70275L13.1536 20.4645C12.8985 20.1094 12.5046 19.8665 12.025 19.8665H1.41434C0.630638 19.8665 0 20.5012 0 21.2808V26.9362C0 27.7199 0.630638 28.3526 1.41434 28.3526H7.59011C4.01853 31.8098 1.68578 38.1285 1.68578 42.7266V56.5864C1.68578 59.3089 2.48378 61.8274 3.81852 63.8887V70.1706C3.81852 73.1891 6.22883 75.6565 9.19221 75.6565H15.7435C18.7069 75.6565 21.1172 73.1973 21.1172 70.1706V69.1318H78.8808V70.1706C78.8808 73.1891 81.2952 75.6565 84.2545 75.6565H90.8119C93.7753 75.6565 96.1835 73.1973 96.1835 70.1706V63.8887C97.5224 61.8274 98.3163 59.313 98.3163 56.5864V42.7266C98.3163 38.1264 95.9815 31.8099 92.4058 28.3546H98.5836C99.3653 28.3546 99.998 27.7199 99.998 26.9403V21.2829C100 20.5012 99.3673 19.8665 98.5795 19.8665ZM25.0622 10.9845C26.3011 10.0947 28.1787 9.44363 29.1522 9.44363H71.5499C72.5826 9.44363 74.3602 10.1375 75.2888 10.8641L84.4545 25.8423H15.5598L25.0622 10.9845ZM69.0661 40.9368V50.9984H66.1558V40.9368H69.0661ZM64.0332 40.9368V50.9984H61.1229V40.9368H64.0332ZM58.9983 40.9368V50.9984H56.088V40.9368H58.9983ZM53.9675 40.9368V50.9984H51.0572V40.9368H53.9675ZM48.9387 40.9368V50.9984H46.0284V40.9368H48.9387ZM43.9059 40.9368V50.9984H40.9935V40.9368H43.9059ZM38.8689 40.9368V50.9984H35.9607V40.9368H38.8689ZM33.8381 40.9368V50.9984H30.9278V40.9368H33.8381ZM13.7638 62.8927C5.20838 59.9702 9.35957 54.2618 9.35957 54.2618H19.5477L26.3399 62.8927H13.7638ZM27.3562 51.0045H7.8942V40.9368H27.3542L27.3562 51.0045ZM64.7578 62.8927H35.2361C32.1809 62.8927 29.7012 60.1498 29.7012 56.7701H70.2947C70.2947 60.1539 67.8171 62.8927 64.7578 62.8927ZM86.2301 62.8927H73.65L80.4421 54.2618H90.6323C90.6323 54.2659 94.7814 59.9722 86.2301 62.8927ZM92.0997 51.0045H72.6479V40.9368H92.0997V51.0045Z" fill="#D32420"/>
</svg>
