<svg width="48" height="50" viewBox="0 0 48 50" fill="none" xmlns="http://www.w3.org/2000/svg">
<path d="M39.9645 0C36.2808 0 33.2298 2.68367 32.6277 6.20408H1.84202C1.14814 6.20408 0.586914 6.76531 0.586914 7.45918C0.586914 8.15306 1.14814 8.71429 1.84202 8.71429H32.6175C33.2196 12.2245 36.2706 14.9184 39.9543 14.9184C44.0665 14.9184 47.4032 11.5816 47.4032 7.46939C47.4032 3.35714 44.0665 0 39.9645 0ZM39.9645 12.398C37.24 12.398 35.0155 10.1735 35.0155 7.44898C35.0155 4.72449 37.24 2.5 39.9645 2.5C42.689 2.5 44.9134 4.72449 44.9134 7.44898C44.9134 10.1735 42.689 12.398 39.9645 12.398Z" fill="black"/>
<path d="M46.1684 23.6733H15.3826C14.7806 20.1631 11.7296 17.4692 8.0459 17.4692C3.93366 17.4692 0.596924 20.806 0.596924 24.9182C0.596924 29.0305 3.94386 32.3672 8.0459 32.3672C11.7296 32.3672 14.7806 29.6835 15.3826 26.1631H46.1581C46.852 26.1631 47.4132 25.6019 47.4132 24.908C47.4132 24.2346 46.852 23.6733 46.1684 23.6733ZM8.0459 29.8774C5.32141 29.8774 3.09692 27.6529 3.09692 24.9284C3.09692 22.2039 5.32141 19.9794 8.0459 19.9794C10.7704 19.9794 12.9949 22.2039 12.9949 24.9284C12.9949 27.6529 10.7806 29.8774 8.0459 29.8774Z" fill="black"/>
<path d="M39.9645 35.0815C36.2808 35.0815 33.2298 37.7652 32.6277 41.2856H1.84202C1.14814 41.2856 0.586914 41.8468 0.586914 42.5407C0.586914 43.2346 1.14814 43.7958 1.84202 43.7958H32.6175C33.2196 47.306 36.2706 49.9999 39.9543 49.9999C44.0665 49.9999 47.4032 46.6632 47.4032 42.5509C47.4032 38.4387 44.0665 35.0815 39.9645 35.0815ZM39.9645 47.4795C37.24 47.4795 35.0155 45.255 35.0155 42.5305C35.0155 39.806 37.24 37.5815 39.9645 37.5815C42.689 37.5815 44.9134 39.806 44.9134 42.5305C44.9134 45.255 42.689 47.4795 39.9645 47.4795Z" fill="black"/>
</svg>
