<svg viewBox="0 0 114 114" fill="none" xmlns="http://www.w3.org/2000/svg">
<path d="M106.399 86.4498H112.099V10.4502H1.89941V86.4498H72.199H85.4988H93.0987H106.399Z" fill="#F9E0A0" fill-opacity="0.03"/>
<path d="M104.499 61.7498V25.6502H104.507C100.266 25.6502 96.8952 22.291 96.8952 18.0503L96.899 18.13L17.0999 18.0503H17.1304C17.1304 22.3785 13.8587 25.6502 9.5305 25.6502L9.5 71.2498V71.246C13.8282 71.246 17.0999 74.4892 17.0999 78.8174V78.827L74.0994 78.8497H94.8795L102.599 68.5575L104.499 61.7498Z" fill="#EBEBEB" fill-opacity="0.03"/>
<path d="M98.7996 73.1499L112.1 97.8498L102.415 95.9726L96.8997 103.55L89.2998 76.9499L98.7996 73.1499Z" fill="#EA9D2D" fill-opacity="0.03"/>
<path d="M98.7988 73.1499L89.2988 76.9499L91.4401 84.4416C95.5839 84.0199 99.365 82.382 102.433 79.8988L98.7988 73.1499Z" fill="#D68F29" fill-opacity="0.03"/>
<path d="M79.7998 73.1499L66.5 97.8498L76.1841 95.9726L81.6997 103.55L89.2998 76.9499L79.7998 73.1499Z" fill="#FBB540" fill-opacity="0.03"/>
<path d="M87.1585 84.4416L89.2998 76.9499L79.7998 73.1499L76.167 79.8968C79.2356 82.382 83.0145 84.0197 87.1585 84.4416Z" fill="#EA9D2D" fill-opacity="0.03"/>
<path d="M89.2993 31.3501H24.6997C23.649 31.3501 22.7998 30.4989 22.7998 29.4502C22.7998 28.4015 23.649 27.5503 24.6997 27.5503H89.2991C90.3498 27.5503 91.199 28.4015 91.199 29.4502C91.1993 30.4989 90.3501 31.3501 89.2993 31.3501Z" fill="#B9B9B9" fill-opacity="0.03"/>
<path d="M89.2993 42.75H24.6997C23.649 42.75 22.7998 41.8988 22.7998 40.8501C22.7998 39.8014 23.649 38.9502 24.6997 38.9502H89.2991C90.3498 38.9502 91.199 39.8014 91.199 40.8501C91.199 41.8988 90.3501 42.75 89.2993 42.75Z" fill="#B9B9B9" fill-opacity="0.03"/>
<path d="M56.9995 54.1499H24.6997C23.649 54.1499 22.7998 53.2987 22.7998 52.25C22.7998 51.2013 23.649 50.3501 24.6997 50.3501H56.9995C58.0502 50.3501 58.8994 51.2013 58.8994 52.25C58.8994 53.2987 58.0502 54.1499 56.9995 54.1499Z" fill="#B9B9B9" fill-opacity="0.03"/>
<path d="M56.9995 65.5498H24.6997C23.649 65.5498 22.7998 64.6986 22.7998 63.6499C22.7998 62.6012 23.649 61.75 24.6997 61.75H56.9995C58.0502 61.75 58.8994 62.6012 58.8994 63.6499C58.8994 64.6986 58.0502 65.5498 56.9995 65.5498Z" fill="#B9B9B9" fill-opacity="0.03"/>
<path d="M89.2996 78.8499C97.6943 78.8499 104.5 72.0446 104.5 63.6499C104.5 55.2552 97.6943 48.45 89.2996 48.45C80.9049 48.45 74.0996 55.2552 74.0996 63.6499C74.0996 72.0446 80.9049 78.8499 89.2996 78.8499Z" fill="#DC4D41" fill-opacity="0.03"/>
<path d="M89.2991 71.2498C93.4964 71.2498 96.8989 67.8472 96.8989 63.6499C96.8989 59.4526 93.4964 56.05 89.2991 56.05C85.1018 56.05 81.6992 59.4526 81.6992 63.6499C81.6992 67.8472 85.1018 71.2498 89.2991 71.2498Z" fill="#EA6B65" fill-opacity="0.03"/>
<path d="M112.099 8.55029H1.89991C0.849204 8.55029 0 9.4015 0 10.4502V86.4495C0 87.4982 0.849204 88.3494 1.89991 88.3494H69.4557L64.8254 96.9488C64.4776 97.5947 64.5346 98.3834 64.9679 98.9743C65.403 99.567 66.1402 99.852 66.8603 99.7153L75.357 98.0681L80.1621 104.669C80.525 105.165 81.0988 105.45 81.6991 105.45C81.8093 105.45 81.9195 105.44 82.0315 105.421C82.746 105.294 83.3273 104.769 83.5268 104.072L88.0184 88.3497H90.5796L95.0712 104.072C95.2707 104.771 95.8521 105.294 96.5666 105.421C96.6786 105.44 96.7888 105.45 96.899 105.45C97.4995 105.45 98.0733 105.165 98.436 104.667L103.241 98.0661L111.738 99.7133C112.46 99.852 113.197 99.565 113.63 98.9723C114.065 98.3814 114.12 97.5929 113.773 96.9468L109.142 88.3494H112.099C113.149 88.3494 113.999 87.4982 113.999 86.4495V10.4502C113.999 9.4015 113.15 8.55029 112.099 8.55029ZM80.9431 99.2822L77.7207 94.8534C77.2856 94.2569 76.5446 93.9679 75.8225 94.1048L70.0752 95.2201L79.5295 77.6622C81.5245 79.0567 83.8272 80.0297 86.3163 80.4704L80.9431 99.2822ZM102.599 52.9262C99.4622 49.0427 94.6687 46.5498 89.2994 46.5498C79.8697 46.5498 72.1995 54.2221 72.1995 63.6497C72.1995 68.0407 73.8772 72.0382 76.6074 75.0686L75.5948 76.9495L18.8232 76.927C18.4679 75.067 17.5902 73.3817 16.262 72.0611C14.9415 70.7464 13.2582 69.8762 11.3999 69.5247L11.4284 27.3773C15.2625 26.659 18.1372 23.7843 18.8555 19.9522L95.195 20.0281C95.957 23.7636 98.8488 26.6325 102.599 27.3659V52.9262ZM90.2568 76.9155C89.7857 76.9498 89.3087 76.9402 88.8356 76.925C81.7182 76.6799 75.9993 70.8281 75.9993 63.6499C75.9993 56.3159 81.9671 50.3501 89.2992 50.3501C96.6312 50.3501 102.599 56.3159 102.599 63.6499C102.599 70.5981 97.1767 76.4254 90.2568 76.9155ZM89.1037 84.5496L89.2994 83.8676L89.4931 84.5496H89.1037ZM102.778 94.1066C102.054 93.9679 101.313 94.2567 100.88 94.8552L97.6572 99.284L92.2858 80.4855C94.7787 80.0446 97.0738 79.0509 99.0668 77.6544L108.527 95.2237L102.778 94.1066ZM110.199 84.5496H107.096L101.991 75.0668C104.729 72.0231 106.399 68.0122 106.399 63.6497C106.399 63.1367 106.367 62.6333 106.321 62.1316C106.35 62.0043 106.399 61.8847 106.399 61.7498V25.8192C106.405 25.7642 106.407 25.7072 106.407 25.6502C106.407 24.6015 105.557 23.7502 104.507 23.7502C101.307 23.7502 98.8009 21.2518 98.7954 18.0599C98.7954 18.0256 98.7954 17.9933 98.7934 17.961C98.7439 16.9292 97.9003 16.0611 96.8516 16.1504C96.6786 16.1542 96.5116 16.1809 96.3537 16.2283L17.1016 16.1504H17.0999C16.0512 16.1504 15.2 16.9996 15.2 18.0503C15.2 18.1509 15.2075 18.2518 15.2227 18.3486C15.0822 21.495 12.7318 23.7502 9.53028 23.7502C8.48158 23.7502 7.63037 24.5995 7.63037 25.6502L7.59987 71.246C7.59987 71.7494 7.79936 72.2339 8.1565 72.5913C8.51186 72.9466 8.99435 73.1461 9.49978 73.1461C12.802 73.1461 15.1997 75.5305 15.1997 78.8272C15.1997 79.8759 16.0489 80.7271 17.0996 80.7271L73.5481 80.7498L71.5019 84.5498H3.80004V12.3503H110.199V84.5496H110.199Z" fill="black" fill-opacity="0.05"/>
<path d="M89.2998 54.1499C84.0616 54.1499 79.7998 58.4115 79.7998 63.6499C79.7998 68.8883 84.0614 73.1499 89.2998 73.1499C94.5382 73.1499 98.7998 68.8883 98.7998 63.6499C98.7998 58.4115 94.538 54.1499 89.2998 54.1499ZM89.2998 69.3498C86.1573 69.3498 83.5999 66.7924 83.5999 63.6499C83.5999 60.5074 86.1573 57.9499 89.2998 57.9499C92.4423 57.9499 94.9998 60.5074 94.9998 63.6499C94.9998 66.7924 92.4423 69.3498 89.2998 69.3498Z" fill="black" fill-opacity="0.05"/>
<path d="M89.2993 27.55H24.6997C23.649 27.55 22.7998 28.4013 22.7998 29.45C22.7998 30.4987 23.649 31.3499 24.6997 31.3499H89.2991C90.3498 31.3499 91.199 30.4987 91.199 29.45C91.1993 28.4013 90.3501 27.55 89.2993 27.55Z" fill="black" fill-opacity="0.05"/>
<path d="M89.2993 38.95H24.6997C23.649 38.95 22.7998 39.8012 22.7998 40.8499C22.7998 41.8986 23.649 42.7498 24.6997 42.7498H89.2991C90.3498 42.7498 91.199 41.8986 91.199 40.8499C91.199 39.8012 90.3501 38.95 89.2993 38.95Z" fill="black" fill-opacity="0.05"/>
<path d="M56.9995 50.3499H24.6997C23.649 50.3499 22.7998 51.2011 22.7998 52.2498C22.7998 53.2985 23.649 54.1497 24.6997 54.1497H56.9995C58.0502 54.1497 58.8994 53.2985 58.8994 52.2498C58.8994 51.2011 58.0502 50.3499 56.9995 50.3499Z" fill="black" fill-opacity="0.05"/>
<path d="M56.9995 61.75H24.6997C23.649 61.75 22.7998 62.6012 22.7998 63.6499C22.7998 64.6986 23.649 65.5498 24.6997 65.5498H56.9995C58.0502 65.5498 58.8994 64.6986 58.8994 63.6499C58.8994 62.6012 58.0502 61.75 56.9995 61.75Z" fill="black" fill-opacity="0.05"/>
</svg>
