<svg viewBox="0 0 47 32" fill="none" xmlns="http://www.w3.org/2000/svg">
<path d="M41.2623 0H5.74736C2.57707 0 0 2.3056 0 5.14193V26.8581C0 29.6944 2.57707 32 5.74736 32H41.2526C44.4229 32 47 29.6944 47 26.8581V5.15063C47.0097 2.3143 44.4326 0 41.2623 0ZM44.384 26.8581C44.384 28.398 42.9836 29.6509 41.2623 29.6509H5.74736C4.02607 29.6509 2.6257 28.398 2.6257 26.8581V5.15063C2.6257 3.61066 4.02607 2.3578 5.74736 2.3578H41.2526C42.9739 2.3578 44.3743 3.61066 44.3743 5.15063V26.8581H44.384Z" fill="black"/>
<path d="M29.6413 15.7305L41.136 6.50812C41.6708 6.0731 41.7195 5.33357 41.2332 4.84634C40.747 4.36782 39.9204 4.32432 39.3758 4.75934L23.5244 17.488L20.4319 15.0171C20.4222 15.0084 20.4124 14.9997 20.4124 14.991C20.3444 14.9301 20.2763 14.8779 20.1985 14.8257L7.61459 4.75064C7.07 4.31562 6.24339 4.35912 5.75715 4.84634C5.27091 5.33357 5.31953 6.0731 5.86412 6.50812L17.495 15.8088L5.91275 25.5098C5.38761 25.9535 5.35843 26.693 5.8544 27.1715C6.11697 27.4151 6.46706 27.5456 6.81715 27.5456C7.13807 27.5456 7.45899 27.4412 7.71183 27.2324L19.4691 17.3923L22.6589 19.9415C22.9117 20.1416 23.2229 20.2373 23.5341 20.2373C23.8453 20.2373 24.1662 20.1329 24.4093 19.9328L27.6866 17.3053L39.3758 27.2411C39.6286 27.4586 39.9593 27.563 40.2802 27.563C40.6303 27.563 40.9707 27.4412 41.2332 27.1976C41.7292 26.7278 41.7097 25.9796 41.1846 25.5359L29.6413 15.7305Z" fill="black"/>
</svg>
