<svg viewBox="0 0 100 100" fill="none" xmlns="http://www.w3.org/2000/svg">
<path d="M65.3471 4.72802C64.7976 4.17849 64.0523 3.86963 63.2752 3.86963C63.275 3.86963 63.2746 3.86963 63.2742 3.86963L18.6277 3.88467C13.7741 3.88643 9.8252 7.83555 9.8252 12.6882V91.1961C9.8252 93.5412 10.743 95.7502 12.4094 97.4164C14.0754 99.0824 16.2833 99.9998 18.6273 99.9996C18.6279 99.9996 18.6289 99.9996 18.6295 99.9996L77.9636 99.9846C82.8176 99.9834 86.7665 96.0341 86.7665 91.1811V27.3612C86.7665 26.5841 86.4577 25.8388 85.9081 25.2892L65.3471 4.72802ZM71.0269 79.5494C72.1713 80.6938 72.1713 82.5491 71.0269 83.6935C70.4547 84.2656 69.7047 84.5518 68.955 84.5518C68.2052 84.5518 67.455 84.2658 66.883 83.6935L58.9504 75.7608H37.4464L29.5138 83.6935C28.9416 84.2656 28.1916 84.5518 27.4418 84.5518C26.692 84.5518 25.9419 84.2658 25.3699 83.6935C24.2255 82.5491 24.2255 80.6938 25.3699 79.5494L33.0097 71.9096V54.8993L25.3699 47.2596C24.2255 46.1152 24.2255 44.2599 25.3699 43.1155C26.5141 41.9711 28.3696 41.9711 29.514 43.1155L37.3489 50.9504H59.2432L67.0782 43.1155C68.2224 41.9711 70.0779 41.9711 71.2223 43.1155C72.3667 44.2599 72.3667 46.1152 71.2223 47.2596L63.485 54.9968V72.0073L71.0269 79.5494ZM72.1154 30.7782C71.6618 31.8731 70.5932 32.5872 69.4082 32.5872H24.4755C22.8572 32.5872 21.5452 31.2751 21.5452 29.6568V17.9355C21.5452 16.3171 22.8572 15.0051 24.4755 15.0051H57.6866C58.4638 15.0051 59.209 15.314 59.7586 15.8635L71.4799 27.5849C72.3182 28.4226 72.5689 29.6832 72.1154 30.7782Z" fill="#D32420"/>
<path d="M38.8701 56.8416V69.9004H57.6013C57.6091 69.8937 57.6163 69.8861 57.6243 69.8795V56.8115H38.9035C38.8924 56.8217 38.8813 56.8314 38.8701 56.8416Z" fill="#D32420"/>
<path d="M27.4062 20.8657V26.7264H62.3339L56.4733 20.8657H27.4062Z" fill="#D32420"/>
<path d="M89.3172 10.9427L79.2333 0.858785C78.0891 -0.285611 76.2337 -0.285611 75.0893 0.858785L72.4307 3.51738L86.6586 17.7456L89.3174 15.0868C90.4616 13.9424 90.4616 12.0871 89.3172 10.9427Z" fill="#D32420"/>
</svg>
