<svg width="40" height="40" viewBox="0 0 40 40" fill="none" xmlns="http://www.w3.org/2000/svg">
<path d="M20 0C8.94508 0 0 8.94586 0 20C0 31.0549 8.94586 40 20 40C31.0549 40 40 31.0541 40 20C40 8.94508 31.0541 0 20 0ZM20 36.875C10.6724 36.875 3.125 29.327 3.125 20C3.125 10.6724 10.673 3.125 20 3.125C29.3276 3.125 36.875 10.673 36.875 20C36.875 29.3276 29.3269 36.875 20 36.875Z" fill="black"/>
<path d="M20 16.7446C19.137 16.7446 18.4375 17.4442 18.4375 18.3071V28.3691C18.4375 29.2321 19.137 29.9316 20 29.9316C20.863 29.9316 21.5625 29.232 21.5625 28.369V18.3071C21.5625 17.4442 20.863 16.7446 20 16.7446Z" fill="black"/>
<path d="M20 14.8311C21.165 14.8311 22.1094 13.8867 22.1094 12.7217C22.1094 11.5567 21.165 10.6123 20 10.6123C18.835 10.6123 17.8906 11.5567 17.8906 12.7217C17.8906 13.8867 18.835 14.8311 20 14.8311Z" fill="black"/>
</svg>
