<svg width="40" height="41" viewBox="0 0 40 41" fill="none" xmlns="http://www.w3.org/2000/svg">
<g clip-path="url(#clip0)">
<path d="M26.6778 26.6614C30.9343 19.9823 30.3992 20.8156 30.5219 20.6414C32.0716 18.4556 32.8906 15.8831 32.8906 13.2017C32.8906 6.09072 27.1202 0.23291 20 0.23291C12.903 0.23291 7.10938 6.07916 7.10938 13.2017C7.10938 15.8813 7.94563 18.5213 9.54609 20.7365L13.322 26.6615C9.28492 27.2819 2.42188 29.1307 2.42188 33.2017C2.42188 34.6856 3.39047 36.8005 8.00484 38.4485C11.2269 39.5992 15.4868 40.2329 20 40.2329C28.4395 40.2329 37.5781 37.8523 37.5781 33.2017C37.5781 29.13 30.7231 27.2831 26.6778 26.6614ZM11.5038 19.4474C11.4909 19.4272 11.4775 19.4075 11.4634 19.3881C10.1316 17.556 9.45312 15.3846 9.45312 13.2017C9.45312 7.34088 14.1723 2.57666 20 2.57666C25.8155 2.57666 30.5469 7.34299 30.5469 13.2017C30.5469 15.3881 29.8812 17.4858 28.6214 19.2697C28.5085 19.4186 29.0975 18.5036 20 32.7789L11.5038 19.4474ZM20 37.8892C10.7817 37.8892 4.76562 35.1796 4.76562 33.2017C4.76562 31.8723 7.85687 29.6864 14.7069 28.8344L19.0117 35.5893C19.2269 35.927 19.5995 36.1313 19.9999 36.1313C20.4003 36.1313 20.773 35.9269 20.9881 35.5893L25.2929 28.8344C32.143 29.6864 35.2344 31.8723 35.2344 33.2017C35.2344 35.1628 29.2724 37.8892 20 37.8892Z" fill="white"/>
<path d="M20 7.34229C16.7691 7.34229 14.1406 9.9708 14.1406 13.2017C14.1406 16.4325 16.7691 19.061 20 19.061C23.2309 19.061 25.8594 16.4325 25.8594 13.2017C25.8594 9.9708 23.2309 7.34229 20 7.34229ZM20 16.7173C18.0615 16.7173 16.4844 15.1402 16.4844 13.2017C16.4844 11.2631 18.0615 9.68604 20 9.68604C21.9385 9.68604 23.5156 11.2631 23.5156 13.2017C23.5156 15.1402 21.9385 16.7173 20 16.7173Z" fill="white"/>
</g>
<defs>
<clipPath id="clip0">
<rect width="40" height="40" fill="white" transform="translate(0 0.23291)"/>
</clipPath>
</defs>
</svg>
