<svg viewBox="0 0 92 114" fill="none" xmlns="http://www.w3.org/2000/svg">
<path d="M89.7343 46.8089C91.9934 43.3481 91.5761 38.8454 88.7197 35.8587C87.4608 34.5423 86.9346 32.6929 87.3118 30.9112C88.1684 26.868 86.1527 22.8199 82.41 21.0669C80.7606 20.2943 79.6019 18.7598 79.31 16.962C78.648 12.8825 75.306 9.83593 71.183 9.55315C69.3659 9.42846 67.731 8.41627 66.8094 6.84521C64.7182 3.2807 60.5024 1.64707 56.5547 2.87257C54.8154 3.41274 52.9254 3.05916 51.4984 1.9274C48.2608 -0.641164 43.7389 -0.641164 40.5015 1.9274C39.0747 3.05961 37.1843 3.41274 35.4452 2.87257C31.4983 1.64685 27.2815 3.28048 25.1905 6.84521C24.2689 8.41627 22.6342 9.42846 20.8171 9.55315C16.6939 9.83593 13.3521 12.8828 12.6899 16.962C12.3982 18.7598 11.2393 20.2943 9.59009 21.0669C5.84768 22.8201 3.83197 26.8682 4.68809 30.9112C5.06549 32.6929 4.53913 34.5425 3.28045 35.8589C0.424218 38.8456 0.00673723 43.3486 2.26581 46.8093C3.2613 48.3343 3.43876 50.2491 2.74029 51.9313C1.15564 55.7481 2.39339 60.0977 5.74971 62.5086C7.22904 63.5713 8.08604 65.2927 8.0424 67.1134C7.94377 71.2447 10.6691 74.8536 14.6698 75.8894C15.8507 76.1951 16.8767 76.8784 17.6119 77.8104L8.4109 100.023C7.1215 103.136 10.0399 106.342 13.2579 105.354L23.3313 102.263C23.6257 102.173 23.9432 102.304 24.0872 102.576L29.0242 111.885C30.6035 114.862 34.933 114.652 36.2209 111.543L45.8109 88.3908C45.9367 88.3866 46.0625 88.3866 46.1883 88.3908L55.7783 111.543C57.0686 114.657 61.398 114.858 62.9753 111.885L67.9122 102.576C68.0561 102.304 68.3738 102.173 68.6681 102.263L78.7413 105.354C81.9612 106.342 84.8773 103.135 83.5886 100.024L74.3873 77.8107C75.1225 76.8786 76.1485 76.1953 77.3295 75.8896C81.3302 74.854 84.0552 71.2452 83.9568 67.1136C83.9132 65.2929 84.7704 63.5716 86.2497 62.509C89.6063 60.0979 90.8436 55.7483 89.2589 51.9315C88.5616 50.2487 88.739 48.3339 89.7343 46.8089ZM33.136 110.264C32.9265 110.77 32.2304 110.801 31.9751 110.32L27.0381 101.011C26.145 99.3268 24.1743 98.511 22.3523 99.0699L12.2789 102.161C11.7563 102.321 11.2876 101.806 11.4969 101.301L19.6599 81.5931C21.5017 84.1161 24.5806 85.5221 27.8218 85.1436C29.6307 84.9328 31.4238 85.627 32.6183 87.0017C34.3512 88.9967 36.7931 90.0556 39.2844 90.0554C40.0724 90.0554 40.8651 89.9452 41.6421 89.7294L33.136 110.264ZM79.7217 102.161L69.6485 99.0696C67.8265 98.5108 65.8553 99.3268 64.9625 101.011L60.0255 110.319C59.7706 110.801 59.0737 110.769 58.8644 110.264L50.36 89.7332C53.5927 90.6305 57.1016 89.6264 59.3823 87.0012C60.5766 85.6263 62.369 84.9316 64.1787 85.1432C67.423 85.5224 70.4999 84.1158 72.3406 81.5929L80.5041 101.3C80.7138 101.807 80.2425 102.32 79.7217 102.161ZM86.938 44.9836C85.3389 47.4334 85.0539 50.5092 86.1756 53.2114C87.162 55.5873 86.3918 58.2948 84.3022 59.796C81.926 61.5029 80.5491 64.268 80.619 67.1926C80.6804 69.7647 78.9838 72.0113 76.4932 72.6559C74.1635 73.2591 72.2073 74.7754 71.0341 76.8258C71.031 76.8319 71.0276 76.8376 71.0245 76.8434C70.7758 77.2805 70.5603 77.7405 70.3868 78.2226C69.5151 80.6431 67.1231 82.1264 64.5664 81.8267C61.6609 81.4869 58.78 82.6031 56.8613 84.8116C55.1743 86.7536 52.4069 87.2709 50.1318 86.0696C49.3581 85.6608 48.5387 85.3772 47.7019 85.2131C47.695 85.2115 47.6881 85.21 47.6812 85.2086C46.5697 84.9933 45.4275 84.9935 44.316 85.2095C44.312 85.2104 44.3082 85.2113 44.3042 85.212C43.4655 85.3761 42.6445 85.6602 41.869 86.0696C39.5939 87.2711 36.8267 86.7536 35.1397 84.8116C33.4479 82.8645 31.0092 81.7668 28.464 81.7668C28.1224 81.7668 27.7784 81.7866 27.4344 81.8269C24.8801 82.126 22.4854 80.6435 21.6137 78.2228C21.4403 77.7412 21.2252 77.2818 20.9767 76.845C20.9729 76.8379 20.9692 76.8312 20.9654 76.8241C19.792 74.7745 17.8364 73.2589 15.5074 72.6559C13.0168 72.0111 11.3203 69.7647 11.3818 67.1928C11.4517 64.268 10.0748 61.5031 7.69862 59.796C5.60921 58.2951 4.8386 55.5873 5.82519 53.2111C6.94693 50.509 6.66193 47.4332 5.06282 44.9833C3.65674 42.8291 3.91636 40.0259 5.69471 38.1667C7.71665 36.0524 8.56208 33.0812 7.95601 30.2192C7.42297 27.7023 8.67786 25.1823 11.0075 24.0908C13.6569 22.8497 15.5183 20.3847 15.9872 17.4969C16.3994 14.9572 18.4799 13.0607 21.0464 12.8848C23.9652 12.6846 26.5917 11.0585 28.0719 8.53472C29.3738 6.31573 31.9993 5.29908 34.4554 6.0619C37.2496 6.92959 40.2859 6.36204 42.5779 4.54361C44.593 2.94449 47.4083 2.94449 49.424 4.54361C51.7158 6.36182 54.7517 6.92982 57.5462 6.0619C60.0032 5.29886 62.6284 6.31595 63.9298 8.53472C65.41 11.0583 68.0365 12.6844 70.9553 12.8848C73.5218 13.0609 75.6023 14.9575 76.0145 17.4969C76.4834 20.3847 78.345 22.8497 80.9942 24.091C83.324 25.1823 84.5787 27.7023 84.0457 30.2192C83.4396 33.0812 84.2848 36.0524 86.307 38.1667C88.0844 40.0259 88.344 42.8291 86.938 44.9836Z" fill="black" fill-opacity="0.2"/>
<path d="M14.3724 42.7788C15.2868 42.8913 16.1211 42.2407 16.2336 41.3255C18.0776 26.3374 30.8748 15.0352 46.0005 15.0352C61.1335 15.0352 73.9312 26.3434 75.7692 41.3396C75.8729 42.1859 76.593 42.8064 77.4244 42.8064C77.4923 42.8064 77.5607 42.8022 77.6297 42.7937C78.545 42.6815 79.1961 41.8486 79.0841 40.9332C77.041 24.2649 62.8182 11.6956 46.0005 11.6956C29.1906 11.6956 14.9687 24.2583 12.9189 40.9176C12.8064 41.833 13.457 42.6661 14.3724 42.7788Z" fill="black" fill-opacity="0.2"/>
<path d="M77.6294 47.2609C76.7168 47.1496 75.8811 47.8 75.7689 48.7153C73.9315 63.7121 61.1337 75.0211 46 75.0211C30.8732 75.0211 18.076 63.7177 16.2326 48.7285C16.1202 47.8134 15.2875 47.163 14.3714 47.275C13.4563 47.3874 12.8053 48.2208 12.9179 49.1362C14.9668 65.7969 29.1888 78.3605 45.9998 78.3605C62.8183 78.3605 77.0412 65.7904 79.0834 49.1212C79.1958 48.2061 78.5448 47.3732 77.6294 47.2609Z" fill="black" fill-opacity="0.2"/>
<path d="M69.5797 38.1368C69.1554 36.8307 67.9944 35.9548 66.6218 35.9055L53.5293 35.436L49.0368 23.1293C48.5659 21.8392 47.3742 21.0056 46.0009 21.0056C44.6275 21.0056 43.4359 21.8392 42.965 23.1293L38.4724 35.436L25.38 35.9055C24.0076 35.9548 22.8464 36.8307 22.422 38.1368C21.9977 39.4429 22.422 40.834 23.5035 41.6806L33.8194 49.7561L30.2204 62.3531C29.8429 63.6737 30.3172 65.0486 31.4285 65.8559C32.5384 66.6624 33.9926 66.69 35.1328 65.9223L46.0007 58.6065L56.8687 65.9218C58.0076 66.6887 59.4618 66.6628 60.5731 65.8555C61.6843 65.0484 62.1584 63.6735 61.781 62.3527L58.182 49.7559L68.4979 41.6804C69.5795 40.8338 70.0041 39.4429 69.5797 38.1368ZM56.0667 47.1708C55.0258 47.9858 54.5879 49.3335 54.9512 50.604L58.4892 62.987L47.8057 55.7959C47.2573 55.4267 46.629 55.2421 46.0007 55.2421C45.3723 55.2421 44.744 55.4267 44.1958 55.7957L33.5121 62.9868L37.0501 50.604C37.4133 49.3331 36.9755 47.9858 35.9348 47.1708L25.7937 39.2323L38.6644 38.7705C39.9852 38.723 41.1314 37.8901 41.5845 36.6488L46.0009 24.551L50.4173 36.6488C50.8706 37.8901 52.0166 38.723 53.3374 38.7702L66.2076 39.232L56.0667 47.1708Z" fill="black" fill-opacity="0.2"/>
</svg>
