<svg viewBox="0 0 114 114" fill="none" xmlns="http://www.w3.org/2000/svg">
<g clip-path="url(#clip0)">
<path d="M96.8588 85.436H1.63184V39.7271H96.8588V85.436Z" fill="#8CC153" fill-opacity="0.03"/>
<path d="M3.74805 39.727L9.25026 14.968L94.3679 34.1201L93.3623 39.727" fill="#87B748" fill-opacity="0.03"/>
<path d="M62.5771 77.8176H76.924L85.4316 69.5195V69.3538V55.8087L77.6934 47.345H62.5771H32.1045H17.7576L9.25 55.643V55.8087V69.3538L16.9881 77.8176H32.1045H62.5771Z" fill="#A0D468" fill-opacity="0.03"/>
<path d="M22.9453 18.0497L29.196 3.12378L91.145 28.9341L89.7813 33.0879" fill="#7CAA33" fill-opacity="0.03"/>
<path d="M74.0049 96.863V104.481C74.0049 107.637 82.5315 110.195 93.0503 110.195C103.569 110.195 112.096 107.637 112.096 104.481V96.863" fill="#F8CF26" fill-opacity="0.03"/>
<path d="M47.3408 77.8176C55.7556 77.8176 62.5771 70.996 62.5771 62.5813C62.5771 54.1665 55.7556 47.345 47.3408 47.345C38.926 47.345 32.1045 54.1665 32.1045 62.5813C32.1045 70.996 38.926 77.8176 47.3408 77.8176Z" fill="#8CC153" fill-opacity="0.03"/>
<path d="M74.0049 89.2449V96.863C74.0049 100.019 82.5315 102.577 93.0503 102.577C103.569 102.577 112.096 100.019 112.096 96.863V89.2449" fill="#CDA349" fill-opacity="0.03"/>
<path d="M74.0049 81.6267V89.2449C74.0049 92.4007 82.5315 94.9585 93.0503 94.9585C103.569 94.9585 112.096 92.4007 112.096 89.2449V81.6267" fill="#F8CF26" fill-opacity="0.03"/>
<path d="M74.0049 74.0085V81.6267C74.0049 84.7825 82.5315 87.3403 93.0503 87.3403C103.569 87.3403 112.096 84.7825 112.096 81.6267V74.0085" fill="#CDA349" fill-opacity="0.03"/>
<path d="M74.0049 66.3904V74.0085C74.0049 77.1644 82.5315 79.7222 93.0503 79.7222C103.569 79.7222 112.096 77.1644 112.096 74.0085V66.3904" fill="#F8CF26" fill-opacity="0.03"/>
<path d="M74.0049 58.7722V66.3903C74.0049 69.5462 82.5315 72.1039 93.0503 72.1039C103.569 72.1039 112.096 69.5462 112.096 66.3903V58.7722" fill="#CDA349" fill-opacity="0.03"/>
<path d="M93.0503 64.4858C103.569 64.4858 112.096 61.9277 112.096 58.7722C112.096 55.6167 103.569 53.0586 93.0503 53.0586C82.5318 53.0586 74.0049 55.6167 74.0049 58.7722C74.0049 61.9277 82.5318 64.4858 93.0503 64.4858Z" fill="#F8CF26" fill-opacity="0.03"/>
<path d="M96.8591 47.073C97.7595 47.0739 98.4904 46.345 98.4913 45.4446C98.4913 45.4434 98.4913 45.442 98.4913 45.4408V39.7272C98.4923 38.8268 97.7633 38.0959 96.863 38.095C96.8618 38.095 96.8603 38.095 96.8591 38.095H1.63219C0.73182 38.094 0.000953202 38.823 9.31926e-07 39.7234C9.31926e-07 39.7245 9.31926e-07 39.726 9.31926e-07 39.7272V85.4361C-0.000951338 86.3365 0.728011 87.0673 1.62838 87.0683C1.62957 87.0683 1.631 87.0683 1.63219 87.0683H66.3865C67.2878 87.0683 68.0187 86.3374 68.0187 85.4361C68.0187 84.5348 67.2878 83.8039 66.3865 83.8039H3.26438V41.3594H95.227V45.4408C95.226 46.3412 95.955 47.072 96.8553 47.073C96.8565 47.073 96.858 47.073 96.8591 47.073Z" fill="black" fill-opacity="0.05"/>
<path d="M8.37586 13.5891C8.00995 13.8222 7.75117 14.1904 7.65595 14.6137L3.84687 31.7546C3.65118 32.6349 4.20635 33.5072 5.08672 33.7029C5.96709 33.8986 6.83937 33.3434 7.03507 32.4631L10.488 16.9201L85.0736 33.701C85.1916 33.7284 85.3123 33.7417 85.4335 33.741C86.3348 33.7393 87.0643 33.0073 87.0629 32.106C87.0614 31.3439 86.5331 30.6845 85.7897 30.5166L9.6081 13.3758C9.18529 13.2815 8.74225 13.3582 8.37586 13.5891Z" fill="black" fill-opacity="0.05"/>
<path d="M27.8561 11.8904L30.9814 5.63589L75.2791 24.0928C76.1133 24.4408 77.0718 24.0471 77.4198 23.2129C77.7679 22.3787 77.3741 21.4202 76.5399 21.0722L30.831 2.02679C30.0366 1.69564 29.1212 2.03584 28.736 2.80575L24.9269 10.4239C24.4967 11.2195 24.7929 12.2135 25.5887 12.6436C26.3846 13.0738 27.3783 12.7777 27.8085 11.9818C27.8254 11.9506 27.8413 11.9187 27.8561 11.8864V11.8904Z" fill="black" fill-opacity="0.05"/>
<path d="M79.326 47.3453C79.326 46.444 78.5951 45.7131 77.6938 45.7131H62.5775C61.6762 45.7131 60.9453 46.444 60.9453 47.3453C60.9453 48.2467 61.6762 48.9775 62.5775 48.9775H77.6938C78.5951 48.9775 79.326 48.2469 79.326 47.3453Z" fill="black" fill-opacity="0.05"/>
<path d="M47.341 79.3414C56.5973 79.3414 64.1009 71.8377 64.1009 62.5815C64.1009 53.3252 56.5973 45.8215 47.341 45.8215C38.0847 45.8215 30.5811 53.3252 30.5811 62.5815C30.5906 71.8339 38.0887 79.3321 47.341 79.3414ZM47.341 48.8688C54.9144 48.8688 61.0537 55.0081 61.0537 62.5815C61.0537 70.1548 54.9144 76.2941 47.341 76.2941C39.7676 76.2941 33.6283 70.1548 33.6283 62.5815C33.6366 55.0116 39.7712 48.8774 47.341 48.8688Z" fill="black" fill-opacity="0.05"/>
<path d="M93.0505 51.1541C82.9565 51.1541 72.1006 53.5385 72.1006 58.7722V104.481C72.1006 109.715 82.9565 112.099 93.0505 112.099C103.145 112.099 114 109.715 114 104.481V58.7722C114 53.5385 103.145 51.1541 93.0505 51.1541ZM110.191 96.8344C109.904 97.8914 104.192 100.672 93.0505 100.672C81.909 100.672 76.1972 97.8914 75.9097 96.863V93.869C79.9625 95.9107 86.657 96.863 93.0505 96.863C99.4441 96.863 106.14 95.9012 110.191 93.8671V96.8344ZM110.191 89.2162C109.904 90.2733 104.192 93.0539 93.0505 93.0539C81.909 93.0539 76.1972 90.2733 75.9097 89.2448V86.2509C79.9625 88.2925 86.657 89.2448 93.0505 89.2448C99.4441 89.2448 106.14 88.283 110.191 86.249V89.2162ZM110.191 81.5981C109.904 82.6551 104.192 85.4357 93.0505 85.4357C81.909 85.4357 76.1972 82.6551 75.9097 81.6267V78.6327C79.9625 80.6744 86.657 81.6267 93.0505 81.6267C99.4441 81.6267 106.14 80.6649 110.191 78.6308V81.5981ZM110.191 73.9799C109.904 75.037 104.192 77.8176 93.0505 77.8176C81.909 77.8176 76.1972 75.037 75.9097 74.0085V71.0146C79.9625 73.0467 86.657 74.0085 93.0505 74.0085C99.4441 74.0085 106.14 73.0467 110.191 71.0127V73.9799ZM110.191 66.3618C109.904 67.4188 104.192 70.1994 93.0505 70.1994C81.909 70.1994 76.1972 67.4188 75.9097 66.3904V63.3964C79.9625 65.4286 86.657 66.3904 93.0505 66.3904C99.4441 66.3904 106.14 65.4286 110.191 63.3945V66.3618ZM93.0505 54.9631C104.097 54.9631 109.81 57.6942 110.191 58.7722C109.81 59.8502 104.097 62.5813 93.0505 62.5813C81.9261 62.5813 76.2163 59.8083 75.9097 58.8065V58.7951C76.2163 57.7342 81.9261 54.9631 93.0505 54.9631ZM93.0505 108.29C81.909 108.29 76.1972 105.51 75.9097 104.481V101.487C79.9625 103.529 86.657 104.481 93.0505 104.481C99.4441 104.481 106.14 103.519 110.191 101.485V104.453C109.904 105.51 104.192 108.29 93.0505 108.29Z" fill="black" fill-opacity="0.05"/>
<path d="M18.4207 48.9773H32.1048C33.0061 48.9773 33.737 48.2464 33.737 47.3451C33.737 46.4438 33.0061 45.7129 32.1048 45.7129H17.7579C17.3313 45.7119 16.9211 45.8781 16.6152 46.1757L8.10758 54.4738C7.78976 54.8452 7.6155 55.3182 7.61621 55.8069V69.352C7.61621 69.7593 7.76834 70.1519 8.04283 70.4528L15.781 78.9166C16.0902 79.2551 16.5278 79.4482 16.9865 79.448H32.1048C33.0061 79.448 33.737 78.7171 33.737 77.8158C33.737 76.9145 33.0061 76.1836 32.1048 76.1836H17.7084L10.8825 68.7178V56.3383L18.4207 48.9773Z" fill="black" fill-opacity="0.05"/>
<path d="M48.2938 65.4382H43.5325C42.4807 65.4382 41.6279 66.291 41.6279 67.3427C41.6279 68.3945 42.4807 69.2473 43.5325 69.2473H45.437C45.437 70.299 46.2898 71.1518 47.3416 71.1518C48.3933 71.1518 49.2461 70.299 49.2461 69.2473V69.1616C51.3585 68.8633 52.9588 67.1028 53.0552 64.9716C52.9188 62.4745 50.7919 60.5559 48.2938 60.6769H46.3893C45.797 60.6769 45.437 60.3455 45.437 60.2007C45.437 60.056 45.797 59.7246 46.3893 59.7246H51.1506C52.2024 59.7246 53.0552 58.8718 53.0552 57.8201C53.0552 56.7683 52.2024 55.9155 51.1506 55.9155H49.2461C49.2461 54.8637 48.3933 54.011 47.3416 54.011C46.2898 54.011 45.437 54.8637 45.437 55.9155V56.0012C43.3246 56.2995 41.7243 58.06 41.6279 60.1912C41.7643 62.6883 43.8912 64.6069 46.3893 64.4859H48.2938C48.8861 64.4859 49.2461 64.8173 49.2461 64.9621C49.2461 65.1068 48.8861 65.4382 48.2938 65.4382Z" fill="black" fill-opacity="0.05"/>
</g>
<defs>
<clipPath id="clip0">
<rect width="114" height="114" fill="white"/>
</clipPath>
</defs>
</svg>
