<svg viewBox="0 0 100 54" fill="none" xmlns="http://www.w3.org/2000/svg">
<path d="M63.6118 25.8298C64.2571 25.1249 64.349 24.1588 63.815 23.6701C63.2827 23.1829 62.3278 23.3587 61.6829 24.0636L60.5732 25.2764C61.3635 25.8087 62.1022 26.3021 62.7715 26.7472L63.6118 25.8298Z" fill="#D32420"/>
<path d="M66.8381 27.443C67.4833 26.7382 67.5753 25.7721 67.0412 25.2834C66.5089 24.7962 65.5541 24.972 64.9091 25.6769L63.4932 27.2236C64.5044 27.8896 65.2833 28.3928 65.7255 28.6573L66.8381 27.443Z" fill="#D32420"/>
<path d="M70.0634 29.0558C70.7087 28.351 70.8006 27.3848 70.2666 26.8962C69.7343 26.4089 68.7794 26.5848 68.1345 27.2897L66.6895 28.8687C67.4379 28.9414 68.5781 29.0333 69.9893 29.1347L70.0634 29.0558Z" fill="#D32420"/>
<path d="M52.4102 19.7287C54.7489 21.3303 57.357 23.1077 59.6682 24.6657L61.1731 23.1608C61.1731 23.1608 57.983 20.9898 55.162 19.0591C54.3344 19.1771 53.4231 19.393 52.4102 19.7287Z" fill="#D32420"/>
<path d="M26.7221 46.317C27.3543 44.9847 28.4737 42.0154 28.1929 39.6687C27.8848 39.2962 26.7591 38.1059 23.1962 35.3573C23.706 36.5349 23.9913 37.8331 23.9913 39.1975C23.9913 44.5425 19.6592 48.8746 14.3141 48.8746C8.96903 48.8746 4.63694 44.5425 4.63694 39.1975C4.63694 33.8524 8.96903 29.5203 14.3141 29.5203C14.7447 29.5203 15.1657 29.5574 15.5803 29.6122C13.6513 28.0735 12.0643 26.6575 10.8464 25.3237C4.62092 26.8752 0 32.4898 0 39.1978C0 47.1025 6.40785 53.5122 14.3144 53.5122C19.6257 53.5119 24.2513 50.612 26.7221 46.317Z" fill="#D32420"/>
<path d="M15.1641 32.8315C14.8836 32.7944 14.606 32.7461 14.3157 32.7461C10.7576 32.7461 7.86426 35.6397 7.86426 39.1975C7.86426 42.7557 10.7579 45.649 14.3157 45.649C17.8735 45.649 20.7671 42.7554 20.7671 39.1975C20.7671 38.3346 20.5913 37.5153 20.2817 36.7621L16.8656 41.1734C16.2512 41.9684 15.3204 42.4233 14.3124 42.4233C13.593 42.4233 12.9107 42.1893 12.3399 41.7489C10.9334 40.6586 10.6754 38.6297 11.764 37.2232L15.1641 32.8315Z" fill="#D32420"/>
<path d="M84.8791 23.0688C79.8454 23.0688 75.3985 25.5381 72.6502 29.3219C75.013 29.4814 77.7017 29.6525 80.2825 29.8106C81.6468 29.0607 83.2131 28.6316 84.8791 28.6316C90.1565 28.6316 94.4353 32.9106 94.4353 38.1877C94.4353 43.4649 90.1562 47.7439 84.8791 47.7439C81.9484 47.7439 79.3309 46.4214 77.5775 44.3456C75.3564 43.6876 72.7258 42.9697 70.3906 42.4955C72.2469 48.7453 78.0276 53.3081 84.8791 53.3081C93.2304 53.3081 99.9998 46.5388 99.9998 38.1875C99.9998 29.8361 93.229 23.0688 84.8791 23.0688Z" fill="#D32420"/>
<path d="M14.3115 10.0931C16.4003 8.46421 19.2355 6.82377 23.2162 5.22367L25.9082 0.488281L22.1905 2.16905C17.7356 4.87197 15.4808 7.78662 14.3115 10.0931Z" fill="#D32420"/>
<path d="M89.5193 7.03973C89.5178 7.03973 89.516 7.03973 89.516 7.03973C88.4482 6.98665 87.4403 6.96055 86.4902 6.96055C81.5063 6.96055 78.108 7.65089 75.8048 8.51381C73.7388 10.6524 68.376 15.9509 65.8178 16.0767C65.8047 16.0767 65.6354 16.0814 65.6209 16.0814C62.5855 16.0814 52.4274 12.6864 51.9953 12.5411C51.6792 12.4346 51.4598 12.1443 51.447 11.8122C51.4325 11.4783 51.6244 11.172 51.931 11.0379L55.947 9.28807C54.8471 8.17517 54.2357 8.04766 54.2357 8.04766C48.9695 5.34117 41.3165 4.9702 37.5116 4.9702C36.0713 4.9702 35.1826 5.02328 35.1826 5.02328C35.2099 4.49574 34.5809 4.30566 33.6537 4.30566C31.215 4.30566 26.715 5.62822 26.715 5.62822C24.9053 6.25391 23.328 6.8879 21.9102 7.52338C17.5731 9.46539 14.9247 11.4234 13.1781 13.2459C11.7266 14.7603 10.8797 16.1813 10.1813 17.4232C8.99432 19.5346 9.39256 21.6329 12.7443 24.9731C14.004 26.2295 15.6877 27.6665 17.8637 29.3455C18.0751 29.5083 18.283 29.6696 18.5039 29.8374C18.5428 29.8665 18.5766 29.8938 18.6137 29.9228L18.267 30.3712L18.1202 30.5598L17.625 31.1968L17.2362 31.7L16.188 33.0548L12.8303 37.3923C12.0593 38.3889 12.2417 39.8197 13.2369 40.5907C13.6529 40.9116 14.1434 41.0681 14.6321 41.0681C15.3126 41.0681 15.9869 40.7648 16.4368 40.1842L19.8013 35.8408L20.8415 34.4972L21.2932 33.9148L21.7866 33.2761L21.8738 33.1631L22.2803 32.6388C22.3207 32.6679 22.353 32.6937 22.3915 32.7227C22.619 32.892 22.8221 33.0468 23.0368 33.2082C25.9642 35.4162 27.6301 36.8386 28.5559 37.7208C29.6961 38.8094 29.7415 39.0983 29.7415 39.0983C30.414 42.7611 27.9946 47.398 27.9946 47.398C27.9946 47.398 53.733 47.398 56.6231 47.398C59.5131 47.398 60.6554 45.7851 60.6554 45.7851C60.6554 45.7851 62.6036 43.3657 64.2844 40.9466C64.5714 40.532 65.3119 40.3594 66.3391 40.3594C67.3357 40.3594 68.6085 40.5255 69.9986 40.7835C71.9839 41.153 74.2083 41.714 76.2582 42.2899C77.0695 42.5173 77.8438 42.743 78.5712 42.9624C81.1324 43.7316 83.013 44.3754 83.013 44.3754L83.0178 44.3449C83.6114 44.5255 84.2291 44.6497 84.8806 44.6497C88.4482 44.6497 91.34 41.7579 91.34 38.1903C91.34 34.7759 88.6837 32.0099 85.329 31.7759L85.337 31.7308C85.337 31.7308 83.3902 31.6178 80.7178 31.455C79.9501 31.4082 79.1242 31.3566 78.2646 31.3035C76.1049 31.168 73.7534 31.0165 71.6518 30.8712C70.5422 30.7938 69.5067 30.7196 68.6067 30.6502C66.8663 30.5147 65.6375 30.3988 65.4246 30.3276C65.4166 30.3243 65.389 30.3083 65.3795 30.3033C65.2632 30.255 64.9958 30.1002 64.6215 29.8677C64.0795 29.5323 63.3215 29.0403 62.3943 28.4289C62.1668 28.2788 61.9183 28.1128 61.6749 27.9515C60.9878 27.4951 60.2524 27.0031 59.4766 26.4806C59.1573 26.2662 58.8364 26.0501 58.509 25.8291C54.0124 22.7938 48.9962 19.3406 48.9962 19.3406C50.6591 18.6002 52.0769 18.102 53.3042 17.7859C54.5105 17.4763 55.5333 17.3423 56.414 17.3423C59.3367 17.3423 60.7156 18.7778 62.251 19.8439C63.0736 20.4147 63.9365 20.6051 64.7203 20.6051C66.2881 20.6051 67.5427 19.8439 67.5427 19.8439C93.9404 7.13966 89.6566 7.03973 89.5193 7.03973ZM43.1959 31.5149L48.8331 26.4972C49.5009 25.9054 50.5186 25.965 51.1105 26.6295C51.7023 27.2955 51.6442 28.315 50.9782 28.9069L45.9831 33.3535L43.1959 31.5149ZM43.9942 23.2715C44.6602 22.6796 45.6797 22.7392 46.2716 23.4038C46.8635 24.0698 46.8054 25.0893 46.1393 25.6812L41.1234 30.1473L38.3363 28.3085L43.9942 23.2715ZM55.8168 32.1329L50.8409 36.562L48.0538 34.7232L53.6699 29.7233C54.3377 29.1314 55.3536 29.191 55.9473 29.8555C56.5409 30.5215 56.4828 31.5407 55.8168 32.1329Z" fill="#D32420"/>
<path d="M65.6196 15.277L65.6211 15.269L65.7355 14.4674C66.2373 14.4431 67.0421 14.0078 68.0032 13.3273C68.7789 12.7772 69.6563 12.0661 70.5578 11.2806C70.5709 11.2693 70.5836 11.258 70.5949 11.2482C70.7755 11.0917 70.9546 10.9354 71.1352 10.7741C71.0705 10.7901 70.9931 10.8064 70.8979 10.8192C70.6287 10.8562 70.2123 10.8788 69.522 10.8788C69.514 10.8788 69.509 10.8788 69.501 10.8788C66.8428 10.8788 61.5286 10.5641 58.9286 10.3981C58.4915 10.3708 58.1398 10.348 57.8818 10.3305C57.7884 10.3239 57.6979 10.3174 57.6318 10.3145L57.0464 10.5692L54.5176 11.6723C55.7322 12.0578 57.1903 12.5047 58.6563 12.9272C59.0371 13.037 59.411 13.1416 59.7885 13.2466C60.9708 13.574 62.1062 13.8661 63.0996 14.0852C63.8594 14.253 64.5126 14.369 65.0351 14.4239C65.2415 14.4464 65.461 14.474 65.6175 14.474V15.2722V15.277H65.6196Z" fill="#D32420"/>
</svg>
