<svg viewBox="0 0 84 100" fill="none" xmlns="http://www.w3.org/2000/svg">
<path d="M83.0561 13.1104L74.7227 4.77695C73.9088 3.96309 72.5904 3.96309 71.7768 4.77695C70.9629 5.59082 70.9629 6.90918 71.7768 7.72285L78.6371 14.5832L71.7768 21.4436C71.3861 21.8342 71.1664 22.3631 71.1664 22.9166V29.1666C71.1664 33.7627 74.9039 37.5 79.4998 37.5V72.9166C79.4998 74.066 78.566 75 77.4164 75C76.267 75 75.333 74.0662 75.333 72.9166V68.75C75.333 65.3035 72.5295 62.5 69.083 62.5H66.9998V8.3334C66.9998 3.7373 63.2625 0 58.6664 0H16.9998C12.4039 0 8.66641 3.7373 8.66641 8.3334V83.3334C4.07051 83.3334 0.333008 87.0707 0.333008 91.6668V97.9168C0.333008 99.0684 1.26484 100 2.41641 100H73.2498C74.4014 100 75.3332 99.0684 75.3332 97.9168V91.6668C75.3332 87.0709 71.5959 83.3334 66.9998 83.3334V66.6668H69.0832C70.2326 66.6668 71.1666 67.6006 71.1666 68.7502V72.9168C71.1666 76.3633 73.9701 79.1668 77.4166 79.1668C80.8631 79.1668 83.6666 76.3633 83.6666 72.9168V14.5834C83.6664 14.0299 83.4467 13.501 83.0561 13.1104ZM58.6664 35.4553C58.6664 36.6068 57.7346 37.5387 56.583 37.5387H19.083C17.9314 37.5387 16.9996 36.6068 16.9996 35.4553V10.4166C16.9996 9.26504 17.9314 8.3332 19.083 8.3332H56.583C57.7346 8.3332 58.6664 9.26504 58.6664 10.4166V35.4553Z" fill="#D32420"/>
</svg>
