<svg viewBox="0 0 40 40" fill="none" xmlns="http://www.w3.org/2000/svg">
<path d="M31.6128 24.7784C30.7939 23.9257 29.8062 23.4698 28.7593 23.4698C27.7209 23.4698 26.7247 23.9173 25.8721 24.7699L23.2043 27.4292C22.9848 27.3111 22.7653 27.2013 22.5543 27.0916C22.2503 26.9396 21.9633 26.7961 21.7185 26.6441C19.2196 25.057 16.9486 22.9886 14.7705 20.3124C13.7152 18.9785 13.006 17.8557 12.4911 16.716C13.1833 16.0828 13.8249 15.4243 14.4497 14.7912C14.6861 14.5548 14.9224 14.3099 15.1588 14.0736C16.9317 12.3007 16.9317 10.0044 15.1588 8.23151L12.8541 5.92677C12.5924 5.66506 12.3222 5.39491 12.0689 5.12475C11.5624 4.60133 11.0305 4.06103 10.4818 3.55449C9.6629 2.74403 8.6836 2.31348 7.65364 2.31348C6.62368 2.31348 5.62749 2.74403 4.78327 3.55449C4.77482 3.56293 4.77482 3.56293 4.76638 3.57138L1.89601 6.46708C0.815398 7.54769 0.199112 8.86468 0.0640356 10.3927C-0.138579 12.8579 0.587456 15.1542 1.14465 16.6569C2.51229 20.3462 4.55533 23.7653 7.60299 27.4292C11.3007 31.8446 15.7498 35.3312 20.832 37.7879C22.7738 38.7081 25.3655 39.7972 28.2612 39.9829C28.4385 39.9913 28.6242 39.9998 28.7931 39.9998C30.7433 39.9998 32.3811 39.2991 33.6643 37.9061C33.6727 37.8892 33.6896 37.8808 33.6981 37.8639C34.1371 37.332 34.6436 36.8508 35.1754 36.3358C35.5385 35.9897 35.9099 35.6267 36.2729 35.2468C37.1087 34.3772 37.5477 33.3642 37.5477 32.3258C37.5477 31.2789 37.1003 30.2743 36.2476 29.4301L31.6128 24.7784ZM34.6351 33.6681C34.6267 33.6681 34.6267 33.6765 34.6351 33.6681C34.3059 34.0227 33.9682 34.3435 33.6052 34.698C33.0564 35.2215 32.4992 35.7702 31.9758 36.3865C31.1232 37.2983 30.1185 37.7288 28.8015 37.7288C28.6749 37.7288 28.5398 37.7288 28.4132 37.7204C25.9058 37.56 23.5758 36.5807 21.8282 35.7449C17.0499 33.4317 12.8541 30.1477 9.36742 25.9856C6.48861 22.5158 4.56377 19.3078 3.28898 15.8633C2.50385 13.7612 2.21682 12.1234 2.34345 10.5785C2.42787 9.59072 2.80777 8.77182 3.50848 8.07111L6.3873 5.19229C6.80097 4.80395 7.23997 4.59289 7.67052 4.59289C8.20239 4.59289 8.63294 4.9137 8.9031 5.18385C8.91154 5.19229 8.91998 5.20073 8.92842 5.20918C9.4434 5.69039 9.93305 6.18848 10.448 6.72034C10.7097 6.9905 10.9799 7.26065 11.25 7.53924L13.5548 9.84399C14.4497 10.7389 14.4497 11.5662 13.5548 12.4611C13.31 12.7059 13.0736 12.9507 12.8288 13.1871C12.1196 13.9132 11.4442 14.5885 10.7097 15.247C10.6929 15.2639 10.676 15.2724 10.6675 15.2893C9.94149 16.0153 10.0766 16.7244 10.2285 17.2056C10.237 17.231 10.2454 17.2563 10.2539 17.2816C10.8533 18.7337 11.6975 20.1013 12.9807 21.7307L12.9892 21.7392C15.3192 24.6095 17.7759 26.8467 20.4859 28.5605C20.832 28.78 21.1866 28.9573 21.5243 29.1261C21.8282 29.2781 22.1153 29.4216 22.3601 29.5736C22.3938 29.5905 22.4276 29.6158 22.4614 29.6327C22.7484 29.7762 23.0186 29.8437 23.2972 29.8437C23.9979 29.8437 24.4369 29.4047 24.5804 29.2612L27.4677 26.374C27.7547 26.0869 28.2106 25.7408 28.7424 25.7408C29.2659 25.7408 29.6964 26.07 29.9581 26.3571C29.9666 26.3655 29.9666 26.3655 29.975 26.374L34.6267 31.0257C35.4963 31.8868 35.4963 32.7732 34.6351 33.6681Z" fill="black"/>
<path d="M21.6168 9.51481C23.8287 9.88627 25.838 10.9331 27.442 12.5371C29.0461 14.1412 30.0845 16.1504 30.4644 18.3623C30.5572 18.9195 31.0384 19.3078 31.5872 19.3078C31.6547 19.3078 31.7138 19.2994 31.7814 19.291C32.4061 19.1897 32.8198 18.5987 32.7184 17.974C32.2626 15.2978 30.9962 12.858 29.0629 10.9247C27.1297 8.99139 24.6898 7.72505 22.0136 7.26916C21.3889 7.16786 20.8064 7.58153 20.6966 8.19781C20.5869 8.8141 20.9921 9.4135 21.6168 9.51481Z" fill="black"/>
<path d="M39.9532 17.6448C39.2019 13.238 37.1251 9.2279 33.9339 6.03672C30.7427 2.84554 26.7326 0.768738 22.3258 0.0173754C21.7095 -0.0923741 21.127 0.32974 21.0172 0.946026C20.9159 1.57075 21.3296 2.15327 21.9543 2.26302C25.8884 2.92996 29.4764 4.7957 32.3299 7.64075C35.1833 10.4942 37.0406 14.0822 37.7076 18.0163C37.8004 18.5735 38.2817 18.9618 38.8304 18.9618C38.8979 18.9618 38.957 18.9534 39.0246 18.945C39.6409 18.8521 40.063 18.2611 39.9532 17.6448Z" fill="black"/>
</svg>
