<svg viewBox="0 0 30 30" fill="none" xmlns="http://www.w3.org/2000/svg">
<path d="M29.8149 6.25078C29.6338 6.00244 29.3446 5.85547 29.0372 5.85547H7.37954C7.33758 5.85547 7.29569 5.85803 7.25534 5.86346L6.36402 3.2941C6.27164 3.02837 6.06821 2.81655 5.80677 2.71363L1.31473 0.948985C0.819653 0.755159 0.261 0.998332 0.0665696 1.4928C-0.127525 1.98754 0.11558 2.54653 0.610385 2.74096L4.69021 4.34367L9.68398 18.7379C9.46356 18.8147 9.27678 18.9838 9.19172 19.2204L7.74786 23.2312C7.65937 23.4771 7.69583 23.7503 7.84642 23.964C7.99681 24.1777 8.24139 24.305 8.50255 24.305H9.24402C8.78453 24.8163 8.50255 25.4897 8.50255 26.2301C8.50255 27.8225 9.79818 29.1179 11.3903 29.1179C12.9824 29.1179 14.278 27.8225 14.278 26.2301C14.278 25.4897 13.996 24.8163 13.5365 24.305H19.8324C19.3727 24.8163 19.0907 25.4897 19.0907 26.2301C19.0907 27.8225 20.3861 29.1179 21.9785 29.1179C23.5709 29.1179 24.8662 27.8225 24.8662 26.2301C24.8662 25.4897 24.5842 24.8163 24.1248 24.305H25.0267C25.4697 24.305 25.8288 23.9459 25.8288 23.5028C25.8288 23.0598 25.4697 22.7007 25.0267 22.7007H9.64389L10.5381 20.2169C10.6536 20.2655 10.7783 20.2942 10.9089 20.2942H25.0265C25.445 20.2942 25.8154 20.0239 25.9429 19.6256L29.9536 7.11202C30.0477 6.81903 29.9961 6.49912 29.8149 6.25078ZM11.3903 27.5136C10.6824 27.5136 10.1069 26.938 10.1069 26.2301C10.1069 25.5223 10.6824 24.9467 11.3903 24.9467C12.0981 24.9467 12.6737 25.5223 12.6737 26.2301C12.6737 26.938 12.0981 27.5136 11.3903 27.5136ZM21.9784 27.5136C21.2706 27.5136 20.695 26.938 20.695 26.2301C20.695 25.5223 21.2706 24.9467 21.9784 24.9467C22.6862 24.9467 23.2618 25.5223 23.2618 26.2301C23.2618 26.938 22.6862 27.5136 21.9784 27.5136ZM27.024 9.94644H22.1122V7.78065H27.7181L27.024 9.94644ZM25.6096 14.3582H22.1122V11.8715H26.4068L25.6096 14.3582ZM15.7483 14.3582V11.8715H20.187V14.3582H15.7483ZM20.187 16.2835V18.3691H15.7483V16.2835H20.187ZM9.33963 11.8715H13.8233V14.3582H10.2024L9.33963 11.8715ZM15.7483 9.94644V7.78065H20.187V9.94644H15.7483ZM13.8233 7.78065V9.94644H8.67154L7.9202 7.78065H13.8233ZM10.8704 16.2835H13.8233V18.3691H11.5939L10.8704 16.2835ZM22.1122 18.3691V16.2836H24.993L24.3246 18.3691H22.1122Z" fill="white"/>
</svg>
