<svg width="30" height="30" viewBox="0 0 30 30" fill="none" xmlns="http://www.w3.org/2000/svg">
<path d="M15.0002 0.5C23.0081 0.5 29.5 6.99134 29.5 15.0002C29.5 23.0077 23.0081 29.4996 15.0002 29.4996C6.99193 29.4996 0.5 23.0077 0.5 15.0002C0.5 6.99136 6.99193 0.5 15.0002 0.5Z" fill="white" stroke="black"/>
<path d="M8.35718 10.4962C8.35718 9.65488 8.62727 8.80233 9.16758 7.93877C9.70772 7.07522 10.4962 6.36004 11.5324 5.79312C12.5687 5.22639 13.7777 4.94287 15.1594 4.94287C16.4435 4.94287 17.5774 5.17995 18.5605 5.65363C19.5437 6.12755 20.303 6.77193 20.839 7.58669C21.3748 8.40169 21.6428 9.28725 21.6428 10.2438C21.6428 10.9967 21.49 11.6567 21.1844 12.2234C20.8788 12.7903 20.5155 13.2796 20.0949 13.6914C19.6742 14.1033 18.9191 14.7964 17.8297 15.7706C17.5286 16.0453 17.2871 16.2867 17.1057 16.4948C16.924 16.7029 16.7889 16.8933 16.7004 17.066C16.6118 17.2387 16.5431 17.4114 16.4945 17.5841C16.4457 17.7568 16.3727 18.0603 16.2753 18.4942C16.107 19.4154 15.5799 19.8759 14.6944 19.8759C14.2337 19.8759 13.8462 19.7254 13.5319 19.4242C13.2174 19.1232 13.0602 18.6758 13.0602 18.0824C13.0602 17.3384 13.1752 16.694 13.4057 16.1493C13.6359 15.6045 13.9414 15.1263 14.3224 14.7145C14.7031 14.3026 15.2169 13.8133 15.8635 13.2464C16.4302 12.7505 16.84 12.3762 17.0924 12.1238C17.3449 11.8713 17.5574 11.5903 17.7302 11.2801C17.9028 10.9702 17.9893 10.6337 17.9893 10.2704C17.9893 9.56188 17.7256 8.96407 17.1987 8.47685C16.6717 7.98986 15.9918 7.74613 15.1594 7.74613C14.1849 7.74613 13.4675 7.99192 13.0071 8.4835C12.5465 8.97507 12.1568 9.69914 11.8379 10.6557C11.5368 11.6567 10.9654 12.157 10.1241 12.157C9.6279 12.157 9.20943 11.9822 8.86859 11.6322C8.52763 11.2823 8.35718 10.9037 8.35718 10.4962ZM14.8406 25.0573C14.3002 25.0573 13.8286 24.8823 13.4256 24.5325C13.0225 24.1828 12.8211 23.6934 12.8211 23.0645C12.8211 22.5065 13.0158 22.0371 13.4057 21.6562C13.7953 21.2755 14.2736 21.0849 14.8405 21.0849C15.3985 21.0849 15.8678 21.2755 16.2488 21.6562C16.6295 22.0371 16.82 22.5065 16.82 23.0645C16.82 23.6845 16.6208 24.1717 16.2222 24.5259C15.8236 24.8801 15.3631 25.0573 14.8406 25.0573Z" fill="black"/>
</svg>
