<svg viewBox="0 0 114 114" fill="none" xmlns="http://www.w3.org/2000/svg">
<g clip-path="url(#clip0)">
<path d="M57 84.1614L60.4467 94.7698H71.6014L62.5771 101.326L66.0241 111.935L57 105.379L47.9758 111.935L51.4227 101.326L42.3984 94.7698H53.5531L57 84.1614Z" fill="#FBA761" fill-opacity="0.03"/>
<path d="M97.7244 84.1614L101.171 94.7698H112.326L103.302 101.326L106.749 111.935L97.7244 105.379L88.7004 111.935L92.1471 101.326L83.123 94.7698H94.2775L97.7244 84.1614Z" fill="#FBA761" fill-opacity="0.03"/>
<path d="M16.2742 84.1614L12.8273 94.7698H1.67285L10.6969 101.326L7.24995 111.935L16.2742 105.379L25.2985 111.935L21.8515 101.326L30.8756 94.7698H19.7211L16.2742 84.1614Z" fill="#FBA761" fill-opacity="0.03"/>
<path d="M101.618 36.195C101.618 32.9315 98.9728 30.2859 95.7093 30.2859H65.9235C65.9235 30.2859 68.4522 27.1956 69.4929 19.911C71.2777 7.41797 66.7972 2.61951 62.3538 2.07756C61.2481 1.94263 60.276 2.81166 60.276 3.92561C60.276 3.92561 59.154 15.6021 56.9996 19.911C51.6454 30.6194 37.8018 35.9736 37.8018 35.9736V74.0347C37.8018 74.0347 40.937 77.5574 47.256 77.5574C62.3538 77.5574 90.9819 77.5574 90.9819 77.5574C94.2453 77.5574 96.8907 74.912 96.8907 71.6485C96.8907 68.385 94.2453 65.7394 90.9819 65.7394H93.3456C96.6091 65.7394 99.2544 63.0941 99.2544 59.8304C99.2544 56.5669 96.6091 53.9215 93.3456 53.9215H95.7093C98.9728 53.9215 101.618 51.2761 101.618 48.0124C101.618 44.749 98.9728 42.1034 95.7093 42.1034C98.9725 42.1038 101.618 39.4582 101.618 36.195Z" fill="#FCE780" fill-opacity="0.03"/>
<path d="M101.618 36.195C101.618 32.9315 98.9728 30.2859 95.7093 30.2859H65.9235C65.9235 30.2859 68.4522 27.1956 69.4929 19.911C71.2777 7.41797 66.7972 2.61951 62.3538 2.07756C61.2481 1.94263 60.276 2.81166 60.276 3.92561C60.276 3.92561 59.154 15.6021 56.9996 19.911C51.6454 30.6194 37.8018 35.9736 37.8018 35.9736V74.0347C37.8018 74.0347 40.937 77.5574 47.256 77.5574C62.3538 77.5574 90.9819 77.5574 90.9819 77.5574C94.2453 77.5574 96.8907 74.912 96.8907 71.6485C96.8907 68.385 94.2453 65.7394 90.9819 65.7394H93.3456C96.6091 65.7394 99.2544 63.0941 99.2544 59.8304C99.2544 56.5669 96.6091 53.9215 93.3456 53.9215H95.7093C98.9728 53.9215 101.618 51.2761 101.618 48.0124C101.618 44.749 98.9728 42.1034 95.7093 42.1034C98.9725 42.1038 101.618 39.4582 101.618 36.195Z" fill="#FEE2CA" fill-opacity="0.03"/>
<path d="M90.9828 73.9878C90.9828 73.9878 62.3548 73.9878 47.2569 73.9878C40.9382 73.9878 37.8027 70.4651 37.8027 70.4651V74.0345C37.8027 74.0345 40.938 77.5572 47.2569 77.5572C62.3548 77.5572 90.9828 77.5572 90.9828 77.5572C94.2463 77.5572 96.8917 74.9118 96.8917 71.6483C96.8917 71.0262 96.7948 70.4266 96.6167 69.8635C95.8601 72.2544 93.624 73.9878 90.9828 73.9878Z" fill="#FDD0AB" fill-opacity="0.03"/>
<path d="M95.7099 37.3766H88.6855V42.1036H95.7099C98.9734 42.1036 101.619 39.4582 101.619 36.1948C101.619 35.3538 101.441 34.5556 101.124 33.8311C100.212 35.9176 98.1322 37.3766 95.7099 37.3766Z" fill="#FDD0AB" fill-opacity="0.03"/>
<path d="M95.7099 49.1947H88.6855V53.9217H95.7099C98.9734 53.9217 101.619 51.2764 101.619 48.0129C101.619 47.1719 101.441 46.3737 101.124 45.6492C100.212 47.7355 98.1322 49.1947 95.7099 49.1947Z" fill="#FDD0AB" fill-opacity="0.03"/>
<path d="M93.3462 61.0124H87.3467V65.7393H93.3462C96.6096 65.7393 99.255 63.094 99.255 59.8303C99.255 58.9893 99.0767 58.1911 98.76 57.4666C97.848 59.5531 95.7686 61.0124 93.3462 61.0124Z" fill="#FDD0AB" fill-opacity="0.03"/>
<path d="M34.0879 77.2636H20.4853C17.9811 77.2636 15.9512 75.2334 15.9512 72.7294V38.7229C15.9512 36.2187 17.9814 34.1887 20.4853 34.1887H34.0879C36.5921 34.1887 38.622 36.2189 38.622 38.7229V72.7292C38.622 75.2334 36.5921 77.2636 34.0879 77.2636Z" fill="#7FDECF" fill-opacity="0.03"/>
<path d="M23.0902 71.8128C22.1045 71.8128 21.3054 71.0136 21.3054 70.0279V34.189H20.4853C17.9811 34.189 15.9512 36.2191 15.9512 38.7231V72.7294C15.9512 75.2336 17.9811 77.2636 20.4853 77.2636H34.0879C36.5921 77.2636 38.622 75.2336 38.622 72.7294V71.813H23.0902V71.8128Z" fill="#24BFB2" fill-opacity="0.03"/>
<path d="M27.2864 70.4617C29.1645 70.4617 30.687 68.9391 30.687 67.061C30.687 65.1829 29.1645 63.6604 27.2864 63.6604C25.4083 63.6604 23.8857 65.1829 23.8857 67.061C23.8857 68.9391 25.4083 70.4617 27.2864 70.4617Z" fill="#F2EDEC" fill-opacity="0.03"/>
<path d="M27.2868 61.9878C24.4889 61.9878 22.2129 64.2638 22.2129 67.0615C22.2129 69.8594 24.4891 72.1351 27.2868 72.1351C30.0845 72.1351 32.3604 69.8591 32.3604 67.0615C32.3604 64.2638 30.0842 61.9878 27.2868 61.9878ZM27.2868 68.7893C26.3343 68.7893 25.5592 68.0142 25.5592 67.0619C25.5592 66.1096 26.3343 65.3345 27.2868 65.3345C28.2393 65.3345 29.0141 66.1096 29.0141 67.0619C29.0141 68.0142 28.2391 68.7893 27.2868 68.7893Z" fill="black" fill-opacity="0.05"/>
<path d="M71.6009 93.097H61.6619L58.5906 83.6445C58.3693 82.963 57.7158 82.4883 56.9993 82.4883C56.2828 82.4883 55.6295 82.9628 55.408 83.6445L52.3366 93.097H42.3979C41.6732 93.097 41.0306 93.5636 40.8066 94.2532C40.5826 94.9426 40.828 95.698 41.4145 96.1237L49.455 101.966L46.3837 111.418C46.1693 112.078 46.3946 112.82 46.9392 113.249C47.521 113.708 48.3591 113.724 48.9585 113.289L56.9991 107.447L65.0396 113.289C65.6684 113.746 66.5524 113.702 67.1335 113.186C67.6262 112.749 67.8179 112.045 67.6142 111.418L64.5429 101.966L72.5835 96.124C73.1699 95.698 73.4153 94.9428 73.1913 94.2534C72.9682 93.5634 72.3256 93.097 71.6009 93.097ZM61.5931 99.9728C61.0067 100.399 60.7613 101.154 60.9853 101.843L62.8409 107.554L57.9825 104.025C57.4028 103.603 56.5954 103.603 56.0158 104.025L51.1575 107.554L53.0131 101.843C53.2371 101.154 52.9917 100.399 52.4052 99.9728L47.5471 96.4433H53.5521C54.2769 96.4433 54.9195 95.9766 55.1435 95.287L56.9991 89.5759L58.8547 95.287C59.0787 95.9766 59.7213 96.4433 60.446 96.4433H66.4511L61.5931 99.9728Z" fill="black" fill-opacity="0.05"/>
<path d="M113.918 94.2532C113.694 93.5637 113.051 93.097 112.326 93.097H102.388L99.3162 83.6445C99.0949 82.963 98.4414 82.4883 97.7249 82.4883C97.0084 82.4883 96.3551 82.9628 96.1336 83.6445L93.0622 93.097H83.1235C82.3988 93.097 81.7562 93.5637 81.5322 94.2532C81.3082 94.9426 81.5536 95.698 82.1401 96.1238L90.1806 101.966L87.1093 111.418C86.8949 112.078 87.1202 112.82 87.6648 113.249C88.2466 113.708 89.0847 113.724 89.6841 113.289L97.7247 107.447L105.765 113.289C106.394 113.746 107.278 113.702 107.859 113.186C108.352 112.749 108.544 112.045 108.34 111.418L105.269 101.966L113.309 96.124C113.896 95.698 114.142 94.9426 113.918 94.2532ZM102.319 99.973C101.732 100.399 101.487 101.154 101.711 101.844L103.566 107.555L98.7084 104.025C98.1217 103.599 97.3277 103.599 96.7414 104.025L91.883 107.555L93.7387 101.844C93.9627 101.154 93.7173 100.399 93.1308 99.973L88.2727 96.4435H94.2779C95.0027 96.4435 95.6453 95.9768 95.8693 95.2872L97.7249 89.5761L99.5805 95.2872C99.8045 95.9768 100.447 96.4435 101.172 96.4435H107.177L102.319 99.973Z" fill="black" fill-opacity="0.05"/>
<path d="M30.876 93.097H20.9373L17.866 83.6445C17.642 82.955 16.9994 82.4883 16.2747 82.4883C15.5499 82.4883 14.9073 82.955 14.6834 83.6445L11.612 93.097H1.67333C0.948583 93.097 0.305998 93.5636 0.0820054 94.2532C-0.141987 94.9426 0.10338 95.698 0.689857 96.1237L8.73042 101.966L5.6591 111.418C5.43511 112.108 5.68047 112.863 6.26695 113.289C6.8532 113.715 7.64742 113.715 8.2339 113.289L16.2745 107.447L24.315 113.289C24.944 113.746 25.8277 113.702 26.4089 113.186C26.9016 112.749 27.0933 112.045 26.8896 111.418L23.8183 101.966L31.8588 96.124C32.4453 95.698 32.6907 94.9428 32.4667 94.2534C32.2434 93.5634 31.6008 93.097 30.876 93.097ZM20.8685 99.9728C20.282 100.399 20.0367 101.154 20.2607 101.843L22.1163 107.554L17.2582 104.025C16.6784 103.603 15.871 103.603 15.2912 104.025L10.4333 107.554L12.2887 101.843C12.5127 101.154 12.2673 100.398 11.6808 99.9726L6.8227 96.443H12.8277C13.5525 96.443 14.1951 95.9763 14.4191 95.2868L16.2747 89.5757L18.1303 95.2868C18.3543 95.9763 18.9969 96.443 19.7216 96.443H25.7267L20.8685 99.9728Z" fill="black" fill-opacity="0.05"/>
<path d="M47.2566 79.2303H90.9825C95.1633 79.2303 98.5644 75.829 98.5644 71.6484C98.5644 69.732 97.8497 67.9793 96.6727 66.6429C99.1905 65.4083 100.928 62.8181 100.928 59.8303C100.928 57.9139 100.213 56.1614 99.036 54.8248C101.554 53.5904 103.291 51.0002 103.291 48.0124C103.291 45.6266 102.183 43.4942 100.455 42.1035C102.183 40.7128 103.291 38.5804 103.291 36.1947C103.291 32.0138 99.8896 28.6126 95.709 28.6126H68.7957C69.6322 26.7885 70.5979 24.01 71.1498 20.1476C72.4319 11.1726 70.4946 6.4086 68.6436 3.99256C67.077 1.94768 64.9722 0.711052 62.5573 0.4167C60.5196 0.166435 58.6588 1.78492 58.6045 3.83202C58.2912 7.0503 57.1452 15.8793 55.5038 19.1626C51.2869 27.5963 41.2331 32.6246 38.1279 34.0157C37.0411 33.0819 35.6302 32.5157 34.0885 32.5157H20.4855C17.0629 32.5157 14.2783 35.3 14.2783 38.7229V72.7294C14.2783 76.1523 17.0629 78.9366 20.4855 78.9366H34.088C35.9194 78.9366 37.5675 78.1389 38.7046 76.8733C40.4707 77.9884 43.3207 79.2303 47.2566 79.2303ZM58.4967 20.6593C60.7645 16.124 61.8951 4.57481 61.9421 4.08541C61.947 4.03241 61.9497 3.97875 61.9497 3.92554C61.9497 3.86832 61.9715 3.82 62.0145 3.78215C62.0746 3.72938 62.1325 3.73606 62.1519 3.73851C63.1992 3.86631 64.7149 4.36729 65.9873 6.02786C67.4482 7.93469 68.9549 11.8501 67.8372 19.6747C66.8898 26.3069 64.6434 29.2084 64.6294 29.2264C63.7523 30.2983 64.5421 31.9593 65.9241 31.9593H95.7099C98.0454 31.9593 99.9455 33.8597 99.9455 36.1951C99.9455 38.5306 98.0454 40.4307 95.7099 40.4307H88.6794C87.7553 40.4307 87.0061 41.1797 87.0061 42.104C87.0061 43.0282 87.7553 43.7772 88.6794 43.7772H95.7099C98.0454 43.7772 99.9455 45.6776 99.9455 48.0128C99.9455 50.348 98.0454 52.2484 95.7099 52.2484H88.6794C87.7553 52.2484 87.0061 52.9974 87.0061 53.9217C87.0061 54.8459 87.7553 55.5949 88.6794 55.5949H93.3462C95.6817 55.5949 97.5818 57.4953 97.5818 59.8305C97.5818 62.1657 95.6817 64.0661 93.3462 64.0661H87.3966C86.4726 64.0661 85.7234 64.8151 85.7234 65.7394C85.7234 66.6636 86.4726 67.4126 87.3966 67.4126H90.9825C93.3179 67.4126 95.2181 69.313 95.2181 71.6484C95.2181 73.9839 93.3179 75.884 90.9825 75.884H47.2568C43.8034 75.884 41.4622 74.7271 40.1911 73.8585C40.2587 73.492 40.2959 73.1151 40.2959 72.7294V38.7229C40.2959 38.0688 40.1935 37.4384 40.0051 36.8462C43.9257 35.0469 53.9628 29.7267 58.4967 20.6593ZM34.088 75.5903H20.4855C18.908 75.5903 17.6246 74.307 17.6246 72.7294V38.7229C17.6246 37.1454 18.908 35.862 20.4855 35.862H34.088C34.8869 35.862 35.6095 36.192 36.1289 36.7219V74.0346C36.1289 74.2348 36.1652 74.431 36.2338 74.6156C35.709 75.2116 34.9428 75.5903 34.088 75.5903Z" fill="black" fill-opacity="0.05"/>
</g>
<defs>
<clipPath id="clip0">
<rect width="114" height="114" fill="white"/>
</clipPath>
</defs>
</svg>
