<svg viewBox="0 0 24 25" fill="none" xmlns="http://www.w3.org/2000/svg">
<path d="M17.1429 15.5857H16.0457L15.6343 15.1743C17.0058 13.6657 17.8286 11.6086 17.8286 9.41429C17.8286 4.47714 13.8514 0.5 8.91429 0.5C3.97714 0.5 0 4.47714 0 9.41429C0 14.3514 3.97714 18.3286 8.91429 18.3286C11.1086 18.3286 13.1657 17.5057 14.6743 16.1343L15.0857 16.5457V17.6428L21.9429 24.5L24 22.4429L17.1429 15.5857ZM8.91429 15.5857C5.48571 15.5857 2.74286 12.8429 2.74286 9.41429C2.74286 5.98571 5.48571 3.24286 8.91429 3.24286C12.3429 3.24286 15.0857 5.98571 15.0857 9.41429C15.0857 12.8429 12.3429 15.5857 8.91429 15.5857Z" fill="#808080"/>
</svg>
