<svg viewBox="0 0 114 114" fill="none" xmlns="http://www.w3.org/2000/svg">
<g clip-path="url(#clip0)">
<path d="M103.845 19.6853C88.1603 15.3876 72.3832 8.69566 58.2193 0.333149C57.467 -0.11105 56.5334 -0.11105 55.7813 0.333149C41.2089 8.9359 26.2843 15.2658 10.154 19.6853C9.11194 19.9705 8.38965 20.9177 8.38965 21.9982V46.5006C8.38965 71.7326 20.0299 88.4345 29.7951 98.0022C40.308 108.303 52.5541 114 57.0003 114C61.4461 114 73.6921 108.303 84.2051 98.0022C93.9701 88.4347 105.61 71.7326 105.61 46.5006V21.998C105.61 20.9177 104.887 19.9705 103.845 19.6853ZM100.814 46.5004C100.814 70.0669 89.9567 85.6517 80.8483 94.5762C70.5102 104.706 59.4569 109.204 57.0003 109.204C54.5437 109.204 43.4898 104.706 33.1514 94.5762C24.0432 85.6515 13.1859 70.0669 13.1859 46.5004V23.8184C28.611 19.4388 42.9763 13.3267 57.0008 5.1768C70.6749 13.1105 85.757 19.5265 100.814 23.8175V46.5004Z" fill="#000003" fill-opacity="0.05"/>
<path d="M35.7442 23.5501C35.2588 22.3177 33.8666 21.7123 32.6339 22.1979C28.35 23.8859 23.953 25.4395 19.5651 26.816C18.5652 27.1299 17.8848 28.0562 17.8848 29.104V38.3645C17.8848 39.6889 18.9586 40.7625 20.2828 40.7625C21.6069 40.7625 22.6808 39.6889 22.6808 38.3645V30.8565C26.6171 29.5829 30.5492 28.1742 34.392 26.6599C35.6244 26.1748 36.2298 24.7825 35.7442 23.5501Z" fill="#000003" fill-opacity="0.05"/>
<path d="M40.3 24.005C40.6217 24.005 40.9483 23.9403 41.2616 23.8035L41.3057 23.7844C42.5189 23.2527 43.0653 21.8404 42.5336 20.6276C42.0015 19.4143 40.5812 18.8655 39.3693 19.3967L39.3305 19.4134C38.1166 19.9436 37.5684 21.3548 38.0986 22.5682C38.492 23.4691 39.3748 24.005 40.3 24.005Z" fill="#000003" fill-opacity="0.05"/>
<path d="M85.5713 77.3246C84.4631 76.6003 82.9771 76.9118 82.2519 78.0204C80.2758 81.0449 77.9576 83.9412 75.3605 86.628C73.2248 88.8372 70.9105 90.8963 68.482 92.7477C67.429 93.5506 67.2264 95.0553 68.0291 96.1087C68.5014 96.7275 69.2154 97.053 69.9377 97.053C70.4449 97.053 70.9559 96.8929 71.3901 96.5616C74.0096 94.5641 76.5056 92.3436 78.8083 89.9616C81.6162 87.0573 84.1256 83.9223 86.2671 80.6437C86.9918 79.5349 86.6799 78.0489 85.5713 77.3246Z" fill="#000003" fill-opacity="0.05"/>
<path d="M62.9128 96.5086L62.7752 96.5896C61.6292 97.2533 61.2376 98.7202 61.9011 99.8662C62.3457 100.634 63.1506 101.063 63.9787 101.063C64.3861 101.063 64.7998 100.959 65.1777 100.74L65.3364 100.647C66.4793 99.9773 66.8632 98.5085 66.1939 97.3656C65.5241 96.2231 64.0551 95.8399 62.9128 96.5086Z" fill="#000003" fill-opacity="0.05"/>
<path d="M40.6543 52.1057C39.1819 50.633 37.2236 49.8226 35.1409 49.8226C33.0582 49.8226 31.0997 50.6333 29.6266 52.1057C26.5867 55.1463 26.5867 60.0937 29.6266 63.1341L43.7866 77.2936C45.2593 78.7658 47.2175 79.5765 49.3005 79.5765C51.3834 79.5765 53.3417 78.7658 54.8146 77.2932L84.3746 47.733C87.4143 44.6917 87.4143 39.745 84.3741 36.7055C82.9015 35.2328 80.9432 34.4224 78.8601 34.4224C76.7771 34.4224 74.8189 35.2331 73.346 36.7055L49.3003 60.7512L40.6543 52.1057ZM76.7375 40.097C77.3041 39.5303 78.0583 39.2184 78.8603 39.2184C79.6627 39.2184 80.4162 39.5303 80.9833 40.097C82.1534 41.267 82.1534 43.1716 80.9829 44.3421L51.4233 73.9019C50.8566 74.4686 50.1025 74.7805 49.3005 74.7805C48.4985 74.7805 47.7443 74.4686 47.1775 73.9019L33.0179 59.7428C31.8474 58.5723 31.8474 56.6677 33.0174 55.4976C33.5843 54.931 34.3385 54.6186 35.1407 54.6186C35.9429 54.6186 36.6966 54.9305 37.2633 55.4972L47.6045 65.8387C48.0543 66.2882 48.6641 66.5407 49.3 66.5407C49.9359 66.5407 50.5458 66.2882 50.9953 65.8387L76.7375 40.097Z" fill="#000003" fill-opacity="0.05"/>
</g>
<defs>
<clipPath id="clip0">
<rect width="114" height="114" fill="white"/>
</clipPath>
</defs>
</svg>
