<svg viewBox="0 0 100 38" fill="none" xmlns="http://www.w3.org/2000/svg">
<path d="M98.4306 19.9716C96.1776 19.2226 88.8673 19.0737 79.398 19.2594L67.5755 8.56754H29.3429L18.949 1.02059L16.6 0.518555L24.9082 8.56754H16.6C16.6 8.56754 16.6 11.9247 29.1245 11.4757C35.0775 10.9512 39.6306 23.3267 34.0388 22.6145C34.0388 22.6145 14.2612 22.5431 12.5755 22.6553C9.30408 22.8737 6.36939 28.9165 4.67755 33.2226H0V35.5655H3.81633C3.4102 36.7329 3.18776 37.4839 3.18776 37.4839H80.9877C80.9898 37.4839 106.473 22.6471 98.4306 19.9716ZM40.4082 16.9879C39.7408 11.3267 45.9776 11.9226 45.9776 11.9226H48.4571L47.1204 16.9879H40.4082ZM54.3306 16.9879H48.4612L49.802 11.9226H55.6714L54.3306 16.9879ZM56.0082 16.9879L57.3469 11.9226H62.2102L60.8755 16.9879H56.0082ZM62.2102 16.9879L63.549 11.9226H65.5571L71.5959 16.9879H62.2102Z" fill="#D32420"/>
</svg>
