<svg viewBox="0 0 40 40" fill="none" xmlns="http://www.w3.org/2000/svg">
<g clip-path="url(#clip0)">
<path d="M11.436 2.98535C9.40205 2.98535 7.7439 4.64351 7.7439 6.67741V21.364C7.7439 23.3978 9.40205 25.056 11.436 25.056H27.9849L32.6489 30.4552C32.9348 30.782 33.3351 30.9698 33.768 30.9698C34.5848 30.9698 35.2546 30.3082 35.2546 29.4914V25.0642H36.3083C38.3422 25.0642 40.0004 23.406 40.0004 21.3721V6.67741C40.0004 4.64351 38.3422 2.98535 36.3083 2.98535H11.436ZM37.991 6.67741V21.364C37.991 22.2951 37.2313 23.0548 36.3002 23.0548H34.2499C33.6945 23.0548 33.2452 23.504 33.2452 24.0595V28.0864L29.1938 23.406C29.0059 23.1855 28.7282 23.063 28.4341 23.063H11.436C10.5048 23.063 9.74512 22.3033 9.74512 21.3721V6.67741C9.74512 5.74623 10.5048 4.98658 11.436 4.98658H36.3002C37.2313 4.98658 37.991 5.74623 37.991 6.67741Z" fill="black"/>
<path d="M5.70962 36.9162C5.88115 36.9816 6.06085 37.0143 6.23239 37.0143C6.64897 37.0143 7.05738 36.8346 7.34327 36.4997L12.0074 31.1004H26.5795C27.135 31.1004 27.5842 30.6512 27.5842 30.0957C27.5842 29.5403 27.135 29.091 26.5795 29.091H11.5499C11.2559 29.091 10.9863 29.2136 10.7903 29.4341L6.74699 34.1309V30.1039C6.74699 29.5485 6.29773 29.0992 5.74229 29.0992H3.69206C2.76087 29.0992 2.00123 28.3396 2.00123 27.4084V12.7218C2.00123 11.7907 2.76087 11.031 3.69206 11.031C4.2475 11.031 4.69675 10.5818 4.69675 10.0263C4.69675 9.47087 4.2475 9.02979 3.69206 9.02979C1.65816 9.02979 0 10.6879 0 12.7218V27.4084C0 29.4423 1.65816 31.1004 3.69206 31.1004H4.74576V35.5276C4.74576 36.1566 5.1215 36.7039 5.70962 36.9162Z" fill="black"/>
<path d="M23.8676 15.5643C24.5263 15.5643 25.0602 15.0304 25.0602 14.3718C25.0602 13.7131 24.5263 13.1792 23.8676 13.1792C23.209 13.1792 22.675 13.7131 22.675 14.3718C22.675 15.0304 23.209 15.5643 23.8676 15.5643Z" fill="black"/>
<path d="M19.8732 15.5643C20.5319 15.5643 21.0658 15.0304 21.0658 14.3718C21.0658 13.7131 20.5319 13.1792 19.8732 13.1792C19.2146 13.1792 18.6807 13.7131 18.6807 14.3718C18.6807 15.0304 19.2146 15.5643 19.8732 15.5643Z" fill="black"/>
<path d="M27.862 15.5643C28.5206 15.5643 29.0546 15.0304 29.0546 14.3718C29.0546 13.7131 28.5206 13.1792 27.862 13.1792C27.2034 13.1792 26.6694 13.7131 26.6694 14.3718C26.6694 15.0304 27.2034 15.5643 27.862 15.5643Z" fill="black"/>
</g>
<defs>
<clipPath id="clip0">
<rect width="40" height="40" fill="white"/>
</clipPath>
</defs>
</svg>
