<svg viewBox="0 0 100 76" fill="none" xmlns="http://www.w3.org/2000/svg"><path d="M7.244 18.899v38.558h85.512V18.9H7.244zm23.654 15.69H29.15v1.748a2.93 2.93 0 01-5.86 0V34.59h-1.747a2.93 2.93 0 010-5.86h1.747v-1.747a2.93 2.93 0 015.86 0v1.747h1.747a2.93 2.93 0 010 5.86zm28.726 6.895L47.656 51.919a2.92 2.92 0 01-1.924.722 2.93 2.93 0 01-1.927-5.138l6.075-5.298h-7.578a2.93 2.93 0 01-1.807-5.236l12.414-9.728a2.93 2.93 0 013.615 4.612l-5.734 4.493h6.908a2.93 2.93 0 011.926 5.138zm18.833-7.871h-9.354a2.93 2.93 0 010-5.86h9.354a2.93 2.93 0 010 5.86zM97.07 75.776H2.93A2.93 2.93 0 010 72.846v-6.6a2.93 2.93 0 012.93-2.93h94.14a2.93 2.93 0 012.93 2.93v6.6a2.93 2.93 0 01-2.93 2.93zm0-62.736H2.93A2.93 2.93 0 010 10.11v-6.6A2.93 2.93 0 012.93.58h94.14A2.93 2.93 0 01100 3.51v6.6a2.93 2.93 0 01-2.93 2.93z" fill="#D32420"/></svg>