<svg width="34" height="37" fill="none" xmlns="http://www.w3.org/2000/svg"><path d="M33.984 8.707c0-.14-.03-.281-.093-.414a.903.903 0 00-.631-.498L17.382.094a.942.942 0 00-.819 0L.53 7.864a.939.939 0 00-.53.811v19.541a.93.93 0 00.53.842l16.034 7.771c.007 0 .007 0 .015.008a.275.275 0 01.07.031c.008 0 .016.008.031.008l.07.024c.008 0 .016.007.024.007.023.008.054.008.078.016h.023c.032 0 .07.008.102.008.03 0 .07 0 .1-.008h.024a.277.277 0 00.078-.016c.008 0 .016-.007.024-.007l.07-.024c.008 0 .015-.008.031-.008a.264.264 0 00.07-.03c.008 0 .008 0 .016-.009l16.08-7.794a.943.943 0 00.53-.842V8.73c-.016-.008-.016-.016-.016-.023zM16.97 1.972l13.905 6.742-5.12 2.487-13.906-6.742 5.12-2.487zm0 13.485L3.063 8.714l6.641-3.219 13.906 6.743-6.641 3.219zm-15.1-5.238l14.162 6.867V34.49L1.871 27.624V10.219zM17.904 34.49V17.086l6.649-3.227v4.552c0 .514.42.935.935.935.515 0 .936-.42.936-.935v-5.464l5.69-2.76v17.406l-14.21 6.898z" fill="#000"/></svg>