<svg viewBox="0 0 100 76" fill="none" xmlns="http://www.w3.org/2000/svg"><path d="M98.58 19.866H87.97c-.413 0-.78.19-1.04.476L79.187 7.735a.976.976 0 00-.15-.183c-1.756-1.764-5.09-3.143-7.581-3.143h-1.77V.343h-4.553V4.41H34.867V.343H30.31V4.41h-1.247c-2.491 0-5.826 1.371-7.596 3.12a.986.986 0 00-.14.174l-8.174 12.762a1.376 1.376 0 00-1.129-.599H1.415A1.413 1.413 0 000 21.281v5.655c0 .784.63 1.417 1.414 1.417H7.59c-3.57 3.457-5.904 9.776-5.904 14.374v13.86c0 2.722.798 5.24 2.133 7.302v6.282c0 3.018 2.41 5.485 5.373 5.485h6.551c2.964 0 5.374-2.459 5.374-5.485v-1.04h57.764v1.04c0 3.018 2.414 5.485 5.373 5.485h6.558c2.963 0 5.371-2.459 5.371-5.485v-6.282c1.34-2.062 2.133-4.576 2.133-7.303v-13.86c0-4.6-2.335-10.916-5.91-14.371h6.178c.781 0 1.414-.635 1.414-1.415v-5.657a1.414 1.414 0 00-1.419-1.417zm-73.518-8.881c1.24-.89 3.117-1.541 4.09-1.541H71.55c1.033 0 2.81.693 3.739 1.42l9.165 14.978H15.56l9.502-14.857zm44.004 29.952v10.061h-2.91V40.937h2.91zm-5.033 0v10.061h-2.91V40.937h2.91zm-5.035 0v10.061h-2.91V40.937h2.91zm-5.03 0v10.061h-2.91V40.937h2.91zm-5.03 0v10.061h-2.91V40.937h2.91zm-5.032 0v10.061h-2.913V40.937h2.913zm-5.037 0v10.061H35.96V40.937h2.908zm-5.03 0v10.061h-2.911V40.937h2.91zM13.763 62.893C5.208 59.97 9.36 54.262 9.36 54.262h10.188l6.792 8.63H13.764zm13.592-11.889H7.894V40.938h19.46l.002 10.068zm37.402 11.889H35.236c-3.055 0-5.535-2.743-5.535-6.123h40.594c0 3.384-2.478 6.123-5.537 6.123zm21.472 0H73.65l6.792-8.631h10.19c0 .004 4.15 5.71-4.402 8.63zm5.87-11.889H72.648V40.938H92.1v10.068z" fill="#D32420"/></svg>