<svg viewBox="0 0 114 114" fill="none" xmlns="http://www.w3.org/2000/svg"><g clip-path="url(#clip0)"><path d="M96.859 85.436H1.632V39.727h95.227v45.709z" fill="#8CC153" fill-opacity=".03"/><path d="M3.748 39.727L9.25 14.968 94.368 34.12l-1.006 5.607" fill="#87B748" fill-opacity=".03"/><path d="M62.577 77.818h14.347l8.508-8.299V55.81l-7.739-8.464H17.758L9.25 55.643v13.711l7.738 8.464h45.589z" fill="#A0D468" fill-opacity=".03"/><path d="M22.945 18.05l6.251-14.926 61.949 25.81-1.364 4.154" fill="#7CAA33" fill-opacity=".03"/><path d="M74.005 96.863v7.618c0 3.156 8.526 5.714 19.045 5.714 10.519 0 19.046-2.558 19.046-5.714v-7.618" fill="#F8CF26" fill-opacity=".03"/><path d="M47.34 77.818c8.416 0 15.237-6.822 15.237-15.237s-6.821-15.236-15.236-15.236c-8.415 0-15.236 6.822-15.236 15.236 0 8.415 6.821 15.237 15.236 15.237z" fill="#8CC153" fill-opacity=".03"/><path d="M74.005 89.245v7.618c0 3.156 8.526 5.714 19.045 5.714 10.519 0 19.046-2.558 19.046-5.714v-7.618" fill="#CDA349" fill-opacity=".03"/><path d="M74.005 81.627v7.618c0 3.156 8.526 5.713 19.045 5.713 10.519 0 19.046-2.557 19.046-5.713v-7.618" fill="#F8CF26" fill-opacity=".03"/><path d="M74.005 74.008v7.619c0 3.156 8.526 5.713 19.045 5.713 10.519 0 19.046-2.558 19.046-5.713v-7.618" fill="#CDA349" fill-opacity=".03"/><path d="M74.005 66.39v7.618c0 3.156 8.526 5.714 19.045 5.714 10.519 0 19.046-2.558 19.046-5.713V66.39" fill="#F8CF26" fill-opacity=".03"/><path d="M74.005 58.772v7.618c0 3.156 8.526 5.714 19.045 5.714 10.519 0 19.046-2.558 19.046-5.714v-7.618" fill="#CDA349" fill-opacity=".03"/><path d="M93.05 64.486c10.519 0 19.046-2.558 19.046-5.714 0-3.155-8.527-5.713-19.046-5.713-10.518 0-19.045 2.558-19.045 5.713 0 3.156 8.527 5.714 19.045 5.714z" fill="#F8CF26" fill-opacity=".03"/><path d="M96.86 47.073c.9 0 1.63-.728 1.631-1.628v-5.718a1.63 1.63 0 00-1.628-1.632H1.632A1.63 1.63 0 000 39.723v45.714a1.63 1.63 0 001.628 1.631h64.759a1.632 1.632 0 000-3.264H3.264V41.359h91.963v4.082a1.63 1.63 0 001.628 1.632h.004zM8.376 13.59a1.642 1.642 0 00-.72 1.024l-3.81 17.14a1.633 1.633 0 003.19.71l3.452-15.544 74.586 16.781a1.633 1.633 0 00.716-3.184L9.608 13.376a1.641 1.641 0 00-1.232.213zm19.48-1.7l3.125-6.254L75.28 24.093a1.637 1.637 0 101.26-3.02L30.832 2.026a1.638 1.638 0 00-2.095.779l-3.81 7.618a1.638 1.638 0 102.93 1.462v.004z" fill="#000" fill-opacity=".05"/><path d="M79.326 47.345c0-.901-.73-1.632-1.632-1.632H62.577a1.632 1.632 0 000 3.264h15.117c.901 0 1.632-.73 1.632-1.632zM47.341 79.341c9.256 0 16.76-7.503 16.76-16.76 0-9.256-7.504-16.76-16.76-16.76-9.256 0-16.76 7.504-16.76 16.76.01 9.253 7.508 16.751 16.76 16.76zm0-30.472c7.573 0 13.713 6.14 13.713 13.712 0 7.574-6.14 13.713-13.713 13.713-7.573 0-13.713-6.14-13.713-13.712.009-7.57 6.143-13.705 13.713-13.713zm45.709 2.285c-10.093 0-20.95 2.384-20.95 7.618v45.709c0 5.234 10.857 7.618 20.95 7.618 10.095 0 20.95-2.384 20.95-7.618V58.772c0-5.233-10.855-7.618-20.95-7.618zm17.141 45.68c-.287 1.057-5.999 3.838-17.14 3.838-11.142 0-16.854-2.78-17.141-3.809v-2.994c4.053 2.042 10.747 2.994 17.14 2.994 6.394 0 13.09-.962 17.141-2.996v2.967zm0-7.618c-.287 1.057-5.999 3.838-17.14 3.838-11.142 0-16.854-2.78-17.141-3.81v-2.993c4.053 2.041 10.747 2.994 17.14 2.994 6.394 0 13.09-.962 17.141-2.996v2.967zm0-7.618c-.287 1.057-5.999 3.838-17.14 3.838-11.142 0-16.854-2.78-17.141-3.81v-2.993c4.053 2.041 10.747 2.994 17.14 2.994 6.394 0 13.09-.962 17.141-2.996v2.967zm0-7.618c-.287 1.057-5.999 3.838-17.14 3.838-11.142 0-16.854-2.781-17.141-3.81v-2.993c4.053 2.032 10.747 2.993 17.14 2.993 6.394 0 13.09-.961 17.141-2.995v2.967zm0-7.618c-.287 1.057-5.999 3.837-17.14 3.837-11.142 0-16.854-2.78-17.141-3.809v-2.994c4.053 2.033 10.747 2.994 17.14 2.994 6.394 0 13.09-.961 17.141-2.995v2.967zm-17.14-11.399c11.046 0 16.759 2.731 17.14 3.81-.381 1.077-6.094 3.808-17.14 3.808-11.125 0-16.835-2.773-17.141-3.775v-.01c.306-1.062 6.016-3.833 17.14-3.833zm0 53.327c-11.142 0-16.854-2.78-17.141-3.809v-2.994c4.053 2.042 10.747 2.994 17.14 2.994 6.394 0 13.09-.962 17.141-2.996v2.968c-.287 1.057-5.999 3.837-17.14 3.837z" fill="#000" fill-opacity=".05"/><path d="M18.42 48.977h13.685a1.632 1.632 0 000-3.264H17.758a1.633 1.633 0 00-1.143.463l-8.507 8.298a2.046 2.046 0 00-.492 1.333v13.545c0 .407.152.8.427 1.1l7.738 8.465c.31.338.747.531 1.205.531h15.119a1.632 1.632 0 000-3.264H17.708l-6.825-7.466v-12.38l7.538-7.36zm29.874 16.461h-4.761a1.905 1.905 0 000 3.81h1.904a1.905 1.905 0 003.81 0v-.086a4.434 4.434 0 003.808-4.19 4.548 4.548 0 00-4.761-4.295h-1.905c-.592 0-.952-.331-.952-.476 0-.145.36-.476.952-.476h4.762a1.905 1.905 0 000-3.81h-1.905a1.905 1.905 0 00-3.809 0v.086a4.434 4.434 0 00-3.81 4.19 4.548 4.548 0 004.762 4.295h1.905c.592 0 .952.331.952.476 0 .145-.36.476-.952.476z" fill="#000" fill-opacity=".05"/></g><defs><clipPath id="clip0"><path fill="#fff" d="M0 0h114v114H0z"/></clipPath></defs></svg>