<svg viewBox="0 0 84 100" fill="none" xmlns="http://www.w3.org/2000/svg"><path d="M83.056 13.11l-8.333-8.333a2.082 2.082 0 10-2.946 2.946l6.86 6.86-6.86 6.86c-.39.391-.61.92-.61 1.474v6.25c0 4.596 3.737 8.333 8.333 8.333v35.417a2.085 2.085 0 01-4.167 0V68.75a6.257 6.257 0 00-6.25-6.25H67V8.333C67 3.737 63.263 0 58.666 0H17c-4.596 0-8.334 3.737-8.334 8.333v75c-4.595 0-8.333 3.738-8.333 8.334v6.25c0 1.151.932 2.083 2.083 2.083H73.25a2.082 2.082 0 002.083-2.083v-6.25c0-4.596-3.737-8.334-8.333-8.334V66.667h2.083c1.15 0 2.084.934 2.084 2.083v4.167a6.257 6.257 0 006.25 6.25 6.257 6.257 0 006.25-6.25V14.583c0-.553-.22-1.082-.61-1.473zm-24.39 22.345a2.082 2.082 0 01-2.083 2.084h-37.5A2.082 2.082 0 0117 35.455V10.417c0-1.152.931-2.084 2.083-2.084h37.5c1.152 0 2.083.932 2.083 2.084v25.038z" fill="#D32420"/></svg>