<svg viewBox="0 0 30 30" fill="none" xmlns="http://www.w3.org/2000/svg"><path d="M29.815 6.25a.963.963 0 00-.778-.395H7.38a.936.936 0 00-.125.008l-.891-2.569a.964.964 0 00-.557-.58L1.315.949A.963.963 0 00.61 2.741l4.08 1.603 4.994 14.394a.797.797 0 00-.492.482l-1.444 4.011a.8.8 0 00.755 1.074h.741a2.87 2.87 0 00-.741 1.925 2.891 2.891 0 002.887 2.888 2.891 2.891 0 002.888-2.888 2.87 2.87 0 00-.742-1.925h6.296a2.87 2.87 0 00-.741 1.925 2.891 2.891 0 002.887 2.888 2.89 2.89 0 002.888-2.888 2.87 2.87 0 00-.741-1.925h.902a.802.802 0 000-1.604H9.644l.894-2.484c.116.049.24.077.37.077h14.118c.419 0 .79-.27.917-.668l4.01-12.514a.962.962 0 00-.138-.861zM11.39 27.515a1.285 1.285 0 010-2.567 1.285 1.285 0 010 2.567zm10.588 0a1.285 1.285 0 010-2.567 1.285 1.285 0 010 2.567zm5.046-17.568h-4.912V7.781h5.606l-.694 2.165zm-1.414 4.412h-3.498v-2.487h4.295l-.797 2.487zm-9.862 0v-2.487h4.439v2.487h-4.439zm4.439 1.925v2.086h-4.439v-2.085h4.439zM9.34 11.872h4.483v2.487h-3.62l-.863-2.487zm6.408-1.925V7.781h4.439v2.165h-4.439zm-1.925-2.165v2.165H8.672L7.92 7.781h5.903zm-2.953 8.503h2.953v2.085h-2.23l-.723-2.085zm11.242 2.085v-2.085h2.881l-.668 2.085h-2.213z" fill="#fff"/></svg>