<svg width="30" height="30" fill="none" xmlns="http://www.w3.org/2000/svg"><path d="M15 .5C23.008.5 29.5 6.991 29.5 15c0 8.008-6.492 14.5-14.5 14.5S.5 23.008.5 15C.5 6.991 6.992.5 15 .5z" fill="#fff" stroke="#000"/><path d="M8.357 10.496c0-.841.27-1.694.81-2.557.54-.864 1.33-1.579 2.365-2.146 1.037-.567 2.246-.85 3.627-.85 1.284 0 2.418.237 3.402.71.983.475 1.742 1.119 2.278 1.934s.804 1.7.804 2.657c0 .753-.153 1.413-.459 1.98a6.06 6.06 0 01-1.09 1.467c-.42.412-1.175 1.105-2.264 2.08a9.226 9.226 0 00-.724.724 2.932 2.932 0 00-.406.571 2.793 2.793 0 00-.206.518 20.05 20.05 0 00-.219.91c-.168.921-.695 1.382-1.58 1.382-.461 0-.849-.15-1.163-.452-.315-.3-.472-.748-.472-1.342 0-.744.115-1.388.346-1.933a4.9 4.9 0 01.916-1.435c.381-.411.895-.9 1.542-1.468.566-.495.976-.87 1.228-1.122.253-.253.465-.534.638-.844.173-.31.26-.646.26-1.01 0-.708-.264-1.306-.791-1.793-.527-.487-1.207-.73-2.04-.73-.974 0-1.692.245-2.152.736-.46.492-.85 1.216-1.17 2.173-.3 1-.872 1.501-1.713 1.501-.496 0-.915-.175-1.255-.525-.341-.35-.512-.728-.512-1.136zm6.484 14.561c-.54 0-1.012-.175-1.415-.524-.403-.35-.605-.84-.605-1.469 0-.558.195-1.027.585-1.408.39-.38.868-.571 1.434-.571.559 0 1.028.19 1.409.571.38.381.571.85.571 1.409 0 .62-.2 1.107-.598 1.46a2.013 2.013 0 01-1.381.532z" fill="#000"/></svg>