<svg viewBox="0 0 100 38" fill="none" xmlns="http://www.w3.org/2000/svg"><path d="M98.43 19.972c-2.252-.75-9.563-.898-19.032-.713L67.576 8.568H29.343L18.949 1.02 16.6.519l8.308 8.049H16.6s0 3.357 12.524 2.908c5.954-.525 10.507 11.85 4.915 11.138 0 0-19.778-.07-21.464.041-3.27.219-6.206 6.261-7.897 10.568H0v2.343h3.816c-.406 1.167-.628 1.918-.628 1.918h77.8c.002 0 25.485-14.837 17.443-17.512zm-58.022-2.984c-.667-5.661 5.57-5.065 5.57-5.065h2.48l-1.338 5.065h-6.712zm13.923 0h-5.87l1.341-5.065h5.87l-1.341 5.065zm1.677 0l1.339-5.065h4.863l-1.334 5.065h-4.868zm6.202 0l1.339-5.065h2.008l6.039 5.065H62.21z" fill="#D32420"/></svg>