<svg viewBox="0 0 40 40" fill="none" xmlns="http://www.w3.org/2000/svg"><g clip-path="url(#clip0)" fill="#000"><path d="M11.436 2.985a3.699 3.699 0 00-3.692 3.692v14.687a3.699 3.699 0 003.692 3.692h16.549l4.664 5.4a1.485 1.485 0 002.606-.964v-4.428h1.053A3.699 3.699 0 0040 21.372V6.677a3.699 3.699 0 00-3.692-3.692H11.436zm26.555 3.692v14.687c0 .931-.76 1.69-1.69 1.69H34.25c-.556 0-1.005.45-1.005 1.006v4.026l-4.051-4.68a.992.992 0 00-.76-.343H11.436c-.931 0-1.69-.76-1.69-1.69V6.676c0-.93.759-1.69 1.69-1.69H36.3c.931 0 1.691.76 1.691 1.69z"/><path d="M5.71 36.916a1.46 1.46 0 001.634-.417l4.663-5.399H26.58a1.004 1.004 0 100-2.009H11.55c-.293 0-.563.123-.759.343l-4.043 4.697v-4.027c0-.555-.45-1.005-1.005-1.005h-2.05c-.931 0-1.69-.76-1.69-1.69V12.721c0-.931.759-1.691 1.69-1.691.555 0 1.005-.45 1.005-1.005a.997.997 0 00-1.005-.996A3.699 3.699 0 000 12.722v14.686A3.699 3.699 0 003.692 31.1h1.054v4.428c0 .629.375 1.176.964 1.388zm18.158-21.352a1.193 1.193 0 100-2.385 1.193 1.193 0 000 2.385zm-3.995 0a1.193 1.193 0 100-2.385 1.193 1.193 0 000 2.385zm7.989 0a1.193 1.193 0 100-2.385 1.193 1.193 0 000 2.385z"/></g><defs><clipPath id="clip0"><path fill="#fff" d="M0 0h40v40H0z"/></clipPath></defs></svg>