<svg viewBox="0 0 96 100" fill="none" xmlns="http://www.w3.org/2000/svg"><path d="M93.102 33.855h-1.981v-5.684a.986.986 0 00-.984-.991h-6.353V.988A.99.99 0 0082.79 0H13.218c-.548 0-.99.44-.99.988V27.18h-6.36a.99.99 0 00-.988.991v5.684H2.902a1.978 1.978 0 00-1.977 1.978v10.38c0 1.089.883 1.977 1.977 1.977h5.935a1.98 1.98 0 001.978-1.978v-10.38a1.98 1.98 0 00-1.978-1.977h-1.98V29.16h5.368v37.41a2.958 2.958 0 00-1.98 2.782v11.53c0 .982.482 1.846 1.22 2.382a2.966 2.966 0 00-1.22 2.392v4.635a2.963 2.963 0 002.966 2.965h5.3v4.763c0 1.092 1.185 1.982 2.657 1.982h8.855c1.47 0 2.657-.89 2.657-1.982v-4.763h30.647v4.763c0 1.092 1.183 1.982 2.657 1.982h8.855c1.467 0 2.66-.89 2.66-1.982v-4.763h5.293a2.96 2.96 0 002.961-2.965v-4.635c0-.981-.477-1.845-1.218-2.39a2.939 2.939 0 001.218-2.381v-11.53a2.95 2.95 0 00-1.975-2.783V29.16h5.367v4.696h-1.98a1.98 1.98 0 00-1.979 1.978v10.38a1.98 1.98 0 001.98 1.977h5.928a1.98 1.98 0 001.982-1.978v-10.38a1.976 1.976 0 00-1.974-1.977zM14.2 29.16h2.168v37.229H14.2v-37.23zm3.447 61.61a2.717 2.717 0 01-2.718-2.718 2.724 2.724 0 012.718-2.722 2.724 2.724 0 012.719 2.722 2.715 2.715 0 01-2.719 2.718zm7.25 0a2.719 2.719 0 01-2.72-2.718 2.725 2.725 0 012.72-2.722 2.725 2.725 0 012.72 2.722 2.718 2.718 0 01-2.72 2.718zm3.167-11.198h-13.18v-8.073h13.18v8.073zm-3.786-33.306V26.192h20.757v20.073H24.278zm39.375 37.34H32.351v-3.593h31.302v3.592zm0-5.668H32.351v-4.5h31.302v4.5zm0-6.574H32.351V66.87h31.302v4.494zm0-6.571H32.351v-4.498h31.302v4.498zM50.966 46.265V26.192h20.759v20.073h-20.76zm20.14 44.508a2.726 2.726 0 01-2.718-2.726 2.724 2.724 0 012.718-2.718 2.724 2.724 0 012.723 2.718 2.727 2.727 0 01-2.723 2.727zm7.247 0a2.723 2.723 0 010-5.444 2.721 2.721 0 012.719 2.718 2.72 2.72 0 01-2.719 2.727zm2.766-11.202H67.935v-8.073h13.184v8.073zm.681-13.183h-2.167V29.159H81.8v37.229zm0-39.208h-2.167v-4.945a3.956 3.956 0 00-3.955-3.955H20.325a3.953 3.953 0 00-3.955 3.955v4.945H14.2V12.357h67.6V27.18z" fill="#D32420"/></svg>