<svg width="38" height="40" fill="none" xmlns="http://www.w3.org/2000/svg"><path d="M10.594 26.337h22.04c2.5 0 4.538-2.039 4.538-4.538v-9.372c0-.016 0-.033-.008-.049 0-.016-.008-.041-.008-.058 0-.016-.009-.032-.009-.049-.008-.016-.008-.033-.016-.057-.008-.017-.008-.033-.017-.05-.008-.016-.008-.033-.016-.05a.402.402 0 01-.025-.057c-.008-.016-.016-.033-.024-.04a7.552 7.552 0 00-.025-.05c-.008-.017-.016-.025-.025-.041-.008-.017-.024-.033-.032-.05-.009-.016-.017-.024-.033-.04-.009-.017-.025-.025-.033-.042-.009-.016-.025-.024-.033-.04-.008-.017-.025-.025-.033-.034a7.963 7.963 0 01-.041-.04c-.017-.009-.025-.025-.041-.034-.017-.008-.033-.024-.05-.033-.016-.008-.024-.016-.04-.024a.167.167 0 01-.05-.033l-.05-.025a11.368 11.368 0 00-.049-.024l-.049-.025c-.016-.008-.033-.008-.05-.016a.153.153 0 00-.057-.017c-.016 0-.033-.008-.041-.008-.025-.008-.041-.008-.066-.008-.008 0-.016-.009-.033-.009L8.284 7.57V3.672c0-.041 0-.082-.008-.115 0-.008 0-.016-.008-.033 0-.025-.009-.05-.009-.074-.008-.024-.008-.04-.016-.066 0-.016-.008-.024-.008-.04l-.025-.075c0-.008-.008-.024-.008-.033a.246.246 0 00-.033-.065c-.008-.009-.008-.025-.017-.033a.175.175 0 00-.032-.05c-.009-.016-.017-.024-.025-.04-.008-.017-.017-.025-.025-.042-.008-.016-.024-.033-.033-.05l-.024-.024-.05-.05-.024-.024a.358.358 0 00-.058-.05c-.008-.007-.024-.015-.033-.024-.016-.016-.033-.024-.049-.04a.729.729 0 00-.066-.042c-.008-.008-.016-.008-.024-.016-.033-.017-.074-.033-.107-.05L1.542.088A1.108 1.108 0 00.089.68 1.108 1.108 0 00.68 2.135l5.376 2.269V28.72a4.543 4.543 0 003.954 4.497 4.484 4.484 0 00-.64 2.302A4.486 4.486 0 0013.85 40a4.49 4.49 0 004.48-4.48c0-.823-.222-1.603-.617-2.261h9.98a4.417 4.417 0 00-.616 2.26A4.486 4.486 0 0031.557 40a4.49 4.49 0 004.48-4.48 4.49 4.49 0 00-4.48-4.48H10.594a2.32 2.32 0 01-2.318-2.319v-3.009a4.59 4.59 0 002.318.625zm5.525 9.174c0 1.25-1.02 2.261-2.261 2.261a2.27 2.27 0 01-2.261-2.26 2.27 2.27 0 012.26-2.261 2.265 2.265 0 012.262 2.26zm17.707 0c0 1.25-1.02 2.261-2.26 2.261a2.27 2.27 0 01-2.261-2.26 2.27 2.27 0 012.26-2.261 2.265 2.265 0 012.261 2.26zm-1.192-11.394h-22.04A2.32 2.32 0 018.276 21.8V9.805l26.676 3.675v8.31a2.323 2.323 0 01-2.318 2.327z" fill="#000"/></svg>