<svg width="40" height="40" fill="none" xmlns="http://www.w3.org/2000/svg"><path d="M35 25.066V7.5a3.129 3.129 0 00-3.125-3.125h-1.25v-1.25A1.877 1.877 0 0028.75 1.25a1.877 1.877 0 00-1.875 1.875v1.25H23.75v-1.25a1.877 1.877 0 00-1.875-1.875A1.877 1.877 0 0020 3.125v1.25h-3.75v-1.25a1.877 1.877 0 00-1.875-1.875A1.877 1.877 0 0012.5 3.125v1.25H9.375v-1.25A1.877 1.877 0 007.5 1.25a1.877 1.877 0 00-1.875 1.875v1.25h-1.25A3.129 3.129 0 001.25 7.5v25a3.129 3.129 0 003.125 3.125H25.39c1.299 2.238 3.716 3.75 6.485 3.75 4.136 0 7.5-3.364 7.5-7.5 0-3.02-1.797-5.621-4.375-6.81zM28.125 3.125a.625.625 0 011.25 0v3.75a.625.625 0 01-1.25 0v-3.75zm-6.875 0a.625.625 0 011.25 0v3.75a.625.625 0 01-1.25 0v-3.75zm-7.5 0a.625.625 0 011.25 0v3.75a.625.625 0 01-1.25 0v-3.75zm-6.875 0a.625.625 0 011.25 0v3.75a.625.625 0 01-1.25 0v-3.75zm-2.5 2.5h1.25v1.25c0 1.034.841 1.875 1.875 1.875a1.877 1.877 0 001.875-1.875v-1.25H12.5v1.25c0 1.034.841 1.875 1.875 1.875a1.877 1.877 0 001.875-1.875v-1.25H20v1.25c0 1.034.841 1.875 1.875 1.875a1.877 1.877 0 001.875-1.875v-1.25h3.125v1.25c0 1.034.841 1.875 1.875 1.875a1.877 1.877 0 001.875-1.875v-1.25h1.25c1.034 0 1.875.841 1.875 1.875v3.125H2.5V7.5c0-1.034.841-1.875 1.875-1.875zm0 28.75A1.877 1.877 0 012.5 32.5V11.875h31.25v12.747a7.465 7.465 0 00-1.875-.247c-.427 0-.843.044-1.25.113V21.25a.625.625 0 00-.625-.625h-3.75a.625.625 0 00-.625.625V25c0 .346.28.625.625.625h1.488a7.497 7.497 0 00-3.363 6.25c0 .878.16 1.717.438 2.5H4.375zm25-10h-2.5v-2.5h2.5v2.5zm2.5 13.75a6.257 6.257 0 01-6.25-6.25 6.257 6.257 0 016.25-6.25 6.257 6.257 0 016.25 6.25 6.257 6.257 0 01-6.25 6.25z" fill="#000"/><path d="M32.5 30.798v-3.923h-1.25v3.923a1.244 1.244 0 00-.625 1.077c0 .063.01.124.019.185l-2.285 1.827.782.976 2.282-1.825a1.243 1.243 0 001.702-1.163c0-.462-.253-.86-.625-1.077zM9.375 13.75h-3.75a.625.625 0 00-.625.625v3.75c0 .346.28.625.625.625h3.75c.345 0 .625-.28.625-.625v-3.75a.625.625 0 00-.625-.625zM8.75 17.5h-2.5V15h2.5v2.5zm7.5-3.75H12.5a.625.625 0 00-.625.625v3.75c0 .346.28.625.625.625h3.75c.346 0 .625-.28.625-.625v-3.75a.625.625 0 00-.625-.625zm-.625 3.75h-2.5V15h2.5v2.5zm7.5-3.75h-3.75a.625.625 0 00-.625.625v3.75c0 .346.28.625.625.625h3.75c.346 0 .625-.28.625-.625v-3.75a.625.625 0 00-.625-.625zM22.5 17.5H20V15h2.5v2.5zm3.75 1.25H30c.346 0 .625-.28.625-.625v-3.75A.625.625 0 0030 13.75h-3.75a.625.625 0 00-.625.625v3.75c0 .346.28.625.625.625zm.625-3.75h2.5v2.5h-2.5V15zm-17.5 5.625h-3.75A.625.625 0 005 21.25V25c0 .346.28.625.625.625h3.75c.345 0 .625-.28.625-.625v-3.75a.625.625 0 00-.625-.625zm-.625 3.75h-2.5v-2.5h2.5v2.5zm7.5-3.75H12.5a.625.625 0 00-.625.625V25c0 .346.28.625.625.625h3.75c.346 0 .625-.28.625-.625v-3.75a.625.625 0 00-.625-.625zm-.625 3.75h-2.5v-2.5h2.5v2.5zm7.5-3.75h-3.75a.625.625 0 00-.625.625V25c0 .346.28.625.625.625h3.75c.346 0 .625-.28.625-.625v-3.75a.625.625 0 00-.625-.625zm-.625 3.75H20v-2.5h2.5v2.5zM9.375 27.5h-3.75a.625.625 0 00-.625.625v3.75c0 .346.28.625.625.625h3.75c.345 0 .625-.28.625-.625v-3.75a.625.625 0 00-.625-.625zm-.625 3.75h-2.5v-2.5h2.5v2.5zm7.5-3.75H12.5a.625.625 0 00-.625.625v3.75c0 .346.28.625.625.625h3.75c.346 0 .625-.28.625-.625v-3.75a.625.625 0 00-.625-.625zm-.625 3.75h-2.5v-2.5h2.5v2.5zm7.5-3.75h-3.75a.625.625 0 00-.625.625v3.75c0 .346.28.625.625.625h3.75c.346 0 .625-.28.625-.625v-3.75a.625.625 0 00-.625-.625zm-.625 3.75H20v-2.5h2.5v2.5z" fill="#000"/></svg>