<svg viewBox="0 0 48 50" fill="none" xmlns="http://www.w3.org/2000/svg"><path d="M39.965 0c-3.684 0-6.735 2.684-7.337 6.204H1.842a1.254 1.254 0 100 2.51h30.775c.603 3.51 3.654 6.204 7.337 6.204a7.451 7.451 0 007.45-7.449c0-4.112-3.338-7.469-7.44-7.469zm0 12.398a4.96 4.96 0 01-4.95-4.949 4.96 4.96 0 014.95-4.949 4.96 4.96 0 014.948 4.949 4.96 4.96 0 01-4.948 4.949zm6.203 11.275H15.383c-.602-3.51-3.653-6.204-7.337-6.204a7.451 7.451 0 00-7.45 7.45c0 4.111 3.348 7.448 7.45 7.448 3.684 0 6.735-2.683 7.337-6.204h30.775c.694 0 1.255-.561 1.255-1.255 0-.673-.561-1.235-1.245-1.235zM8.046 29.877a4.96 4.96 0 01-4.95-4.949 4.96 4.96 0 014.95-4.949 4.96 4.96 0 014.949 4.95 4.954 4.954 0 01-4.95 4.948zm31.919 5.204c-3.684 0-6.735 2.684-7.337 6.205H1.842a1.254 1.254 0 100 2.51h30.775C33.22 47.306 36.272 50 39.954 50a7.451 7.451 0 007.45-7.45c0-4.111-3.338-7.468-7.44-7.468zm0 12.398a4.96 4.96 0 01-4.95-4.948 4.96 4.96 0 014.95-4.95 4.96 4.96 0 014.948 4.95 4.96 4.96 0 01-4.948 4.949z" fill="#000"/></svg>