<svg width="114" height="114" fill="none" xmlns="http://www.w3.org/2000/svg"><path d="M106.399 86.45h5.7v-76H1.899v76H106.4z" fill="#F9E0A0" fill-opacity=".03"/><path d="M104.499 61.75v-36.1h.008c-4.241 0-7.612-3.359-7.612-7.6l.004.08-79.8-.08h.031c0 4.328-3.271 7.6-7.6 7.6l-.03 45.6v-.004c4.328 0 7.6 3.243 7.6 7.571v.01l57 .023h20.78l7.719-10.292 1.9-6.808z" fill="#EBEBEB" fill-opacity=".03"/><path d="M98.8 73.15l13.3 24.7-9.685-1.877-5.515 7.577-7.6-26.6 9.5-3.8z" fill="#EA9D2D" fill-opacity=".03"/><path d="M98.799 73.15l-9.5 3.8 2.141 7.492a20.793 20.793 0 0010.993-4.543l-3.634-6.75z" fill="#D68F29" fill-opacity=".03"/><path d="M79.8 73.15l-13.3 24.7 9.684-1.877 5.516 7.577 7.6-26.6-9.5-3.8z" fill="#FBB540" fill-opacity=".03"/><path d="M87.159 84.442l2.14-7.492-9.5-3.8-3.632 6.747a20.778 20.778 0 0010.992 4.545z" fill="#EA9D2D" fill-opacity=".03"/><path d="M89.3 31.35H24.7a1.9 1.9 0 110-3.8h64.6a1.9 1.9 0 110 3.8zm0 11.4H24.7a1.9 1.9 0 110-3.8h64.6a1.9 1.9 0 110 3.8zM57 54.15H24.7a1.9 1.9 0 110-3.8H57a1.9 1.9 0 110 3.8zm0 11.4H24.7a1.9 1.9 0 110-3.8H57a1.9 1.9 0 110 3.8z" fill="#B9B9B9" fill-opacity=".03"/><path d="M89.3 78.85c8.394 0 15.2-6.805 15.2-15.2s-6.806-15.2-15.2-15.2c-8.395 0-15.2 6.805-15.2 15.2s6.805 15.2 15.2 15.2z" fill="#DC4D41" fill-opacity=".03"/><path d="M89.3 71.25a7.6 7.6 0 10-.001-15.2 7.6 7.6 0 000 15.2z" fill="#EA6B65" fill-opacity=".03"/><path d="M112.099 8.55H1.899A1.9 1.9 0 000 10.45v76a1.9 1.9 0 001.9 1.9h67.556l-4.63 8.599a1.902 1.902 0 002.034 2.766l8.497-1.647 4.805 6.601a1.905 1.905 0 001.87.752 1.904 1.904 0 001.495-1.349l4.491-15.722h2.562l4.491 15.722a1.9 1.9 0 003.365.595l4.805-6.6 8.497 1.646a1.9 1.9 0 002.035-2.767l-4.631-8.597h2.957a1.9 1.9 0 001.9-1.9V10.45a1.9 1.9 0 00-1.9-1.9zM80.943 99.282l-3.222-4.429a1.91 1.91 0 00-1.898-.748l-5.748 1.115 9.454-17.558a17.001 17.001 0 006.787 2.808l-5.373 18.812zM102.6 52.926c-3.137-3.883-7.93-6.376-13.3-6.376-9.43 0-17.1 7.672-17.1 17.1 0 4.39 1.678 8.388 4.408 11.419l-1.012 1.88-56.772-.022a9.272 9.272 0 00-2.561-4.866c-1.32-1.315-3.004-2.185-4.862-2.536l.028-42.148c3.834-.718 6.71-3.593 7.427-7.425l76.34.076a9.345 9.345 0 007.404 7.338v25.56zm-12.342 23.99c-.471.034-.948.024-1.421.009C81.719 76.68 76 70.828 76 63.65c0-7.334 5.968-13.3 13.3-13.3 7.332 0 13.3 5.966 13.3 13.3 0 6.948-5.422 12.775-12.342 13.265zm-1.153 7.634l.195-.682.194.682h-.39zm13.674 9.557a1.9 1.9 0 00-1.898.748l-3.223 4.429-5.371-18.799a16.952 16.952 0 006.78-2.83l9.461 17.569-5.749-1.117zm7.421-9.557h-3.103l-5.105-9.483c2.738-3.044 4.408-7.055 4.408-11.417 0-.513-.032-1.017-.078-1.518.029-.128.078-.247.078-.382V25.82a1.9 1.9 0 00-1.892-2.069c-3.2 0-5.706-2.5-5.712-5.691 0-.034 0-.067-.002-.099-.05-1.032-.893-1.9-1.941-1.81-.173.003-.34.03-.498.077l-79.252-.078H17.1a1.9 1.9 0 00-1.877 2.199c-.14 3.146-2.491 5.401-5.693 5.401a1.9 1.9 0 00-1.9 1.9L7.6 71.246a1.898 1.898 0 001.9 1.9c3.302 0 5.7 2.385 5.7 5.681a1.9 1.9 0 001.9 1.9l56.448.023-2.046 3.8H3.8v-72.2h106.399v72.2z" fill="#000" fill-opacity=".05"/><path d="M89.3 54.15c-5.238 0-9.5 4.261-9.5 9.5 0 5.238 4.261 9.5 9.5 9.5 5.238 0 9.5-4.262 9.5-9.5 0-5.239-4.262-9.5-9.5-9.5zm0 15.2a5.707 5.707 0 01-5.7-5.7c0-3.143 2.557-5.7 5.7-5.7 3.142 0 5.7 2.557 5.7 5.7 0 3.142-2.558 5.7-5.7 5.7zm0-41.8H24.7a1.9 1.9 0 100 3.8h64.6a1.9 1.9 0 100-3.8zm0 11.4H24.7a1.9 1.9 0 100 3.8h64.6a1.9 1.9 0 100-3.8zM57 50.35H24.7a1.9 1.9 0 100 3.8H57a1.9 1.9 0 100-3.8zm0 11.4H24.7a1.9 1.9 0 100 3.8H57a1.9 1.9 0 100-3.8z" fill="#000" fill-opacity=".05"/></svg>