<svg width="47" height="32" fill="none" xmlns="http://www.w3.org/2000/svg"><path d="M41.262 0H5.747C2.577 0 0 2.306 0 5.142v21.716C0 29.694 2.577 32 5.747 32h35.506C44.423 32 47 29.694 47 26.858V5.151C47.01 2.314 44.433 0 41.262 0zm3.122 26.858c0 1.54-1.4 2.793-3.122 2.793H5.747c-1.72 0-3.121-1.253-3.121-2.793V5.151c0-1.54 1.4-2.793 3.121-2.793h35.506c1.72 0 3.121 1.253 3.121 2.793v21.707h.01z" fill="#000"/><path d="M29.641 15.73l11.495-9.222c.535-.435.583-1.174.097-1.662-.486-.478-1.313-.522-1.857-.087L23.524 17.488l-3.092-2.47c-.01-.01-.02-.018-.02-.027a1.894 1.894 0 00-.213-.165L7.614 4.75c-.545-.435-1.372-.392-1.858.095-.486.488-.437 1.227.107 1.662l11.631 9.3L5.913 25.51c-.525.443-.555 1.183-.059 1.662.263.243.613.374.963.374.321 0 .642-.105.895-.314l11.757-9.84 3.19 2.55c.253.2.564.295.875.295.311 0 .632-.104.875-.304l3.278-2.628 11.689 9.936c.253.218.583.322.904.322.35 0 .69-.122.953-.365a1.093 1.093 0 00-.048-1.662L29.64 15.73z" fill="#000"/></svg>