<svg viewBox="0 0 100 100" fill="none" xmlns="http://www.w3.org/2000/svg"><path d="M65.347 4.728a2.93 2.93 0 00-2.072-.858l-44.647.015c-4.854.001-8.803 3.95-8.803 8.803v78.508c0 2.345.918 4.554 2.584 6.22A8.738 8.738 0 0018.627 100h.003l59.334-.015c4.854-.002 8.802-3.95 8.802-8.804v-63.82a2.93 2.93 0 00-.858-2.072L65.348 4.728zm5.68 74.821a2.93 2.93 0 01-4.144 4.144l-7.933-7.932H37.446l-7.932 7.933a2.922 2.922 0 01-2.072.858 2.93 2.93 0 01-2.072-5.002l7.64-7.64V54.9l-7.64-7.64a2.93 2.93 0 114.144-4.145l7.835 7.835h21.894l7.835-7.835a2.93 2.93 0 114.144 4.145l-7.737 7.737v17.01l7.542 7.542zm1.088-48.77a2.93 2.93 0 01-2.707 1.808H24.475a2.93 2.93 0 01-2.93-2.93V17.936a2.93 2.93 0 012.93-2.93h33.212a2.93 2.93 0 012.072.857l11.72 11.722a2.93 2.93 0 01.636 3.193z" fill="#D32420"/><path d="M38.87 56.842V69.9h18.731l.023-.02V56.811h-18.72l-.034.03zM27.406 20.866v5.86h34.928l-5.86-5.86H27.405zm61.911-9.923L79.233.859a2.93 2.93 0 00-4.144 0l-2.658 2.658 14.228 14.229 2.658-2.66a2.93 2.93 0 000-4.143z" fill="#D32420"/></svg>