<svg width="40" height="40" fill="none" xmlns="http://www.w3.org/2000/svg"><path d="M20 0C8.945 0 0 8.946 0 20c0 11.055 8.946 20 20 20 11.055 0 20-8.946 20-20C40 8.945 31.054 0 20 0zm0 36.875c-9.328 0-16.875-7.548-16.875-16.875 0-9.328 7.548-16.875 16.875-16.875 9.328 0 16.875 7.548 16.875 16.875 0 9.328-7.548 16.875-16.875 16.875z" fill="#000"/><path d="M20 16.745c-.863 0-1.563.7-1.563 1.562V28.37a1.562 1.562 0 103.125 0V18.307c0-.863-.699-1.562-1.562-1.562zm0-1.914a2.11 2.11 0 100-4.219 2.11 2.11 0 000 4.22z" fill="#000"/></svg>