<svg width="40" height="41" fill="none" xmlns="http://www.w3.org/2000/svg"><g clip-path="url(#clip0)" fill="#fff"><path d="M26.678 26.661c4.256-6.679 3.721-5.845 3.844-6.02a12.794 12.794 0 002.369-7.44C32.89 6.092 27.12.234 20 .234 12.903.234 7.11 6.08 7.11 13.203c0 2.68.836 5.32 2.436 7.534l3.776 5.925c-4.037.62-10.9 2.47-10.9 6.54 0 1.485.968 3.6 5.583 5.248 3.222 1.15 7.482 1.784 11.995 1.784 8.44 0 17.578-2.38 17.578-7.031 0-4.072-6.855-5.919-10.9-6.54zm-15.174-7.214a10.515 10.515 0 01-2.05-6.246c0-5.86 4.718-10.624 10.546-10.624 5.816 0 10.547 4.766 10.547 10.625 0 2.186-.666 4.284-1.926 6.068-.112.149.477-.766-8.621 13.509l-8.496-13.332zM20 37.89c-9.218 0-15.234-2.71-15.234-4.687 0-1.33 3.09-3.516 9.94-4.368l4.306 6.755a1.172 1.172 0 001.976 0l4.305-6.755c6.85.852 9.941 3.038 9.941 4.368 0 1.96-5.962 4.687-15.234 4.687z"/><path d="M20 7.342a5.866 5.866 0 00-5.86 5.86c0 3.23 2.63 5.859 5.86 5.859 3.23 0 5.86-2.628 5.86-5.86 0-3.23-2.63-5.859-5.86-5.859zm0 9.375a3.52 3.52 0 01-3.516-3.515A3.52 3.52 0 0120 9.686a3.52 3.52 0 013.516 3.516A3.52 3.52 0 0120 16.717z"/></g><defs><clipPath id="clip0"><path fill="#fff" transform="translate(0 .233)" d="M0 0h40v40H0z"/></clipPath></defs></svg>