<svg viewBox="0 0 92 114" fill="none" xmlns="http://www.w3.org/2000/svg"><path d="M89.734 46.809a8.81 8.81 0 00-1.014-10.95 5.504 5.504 0 01-1.408-4.948 8.81 8.81 0 00-4.902-9.844 5.504 5.504 0 01-3.1-4.105 8.81 8.81 0 00-8.127-7.409 5.504 5.504 0 01-4.374-2.708 8.81 8.81 0 00-10.254-3.972c-1.74.54-3.63.186-5.057-.946a8.81 8.81 0 00-10.996 0 5.503 5.503 0 01-5.057.946A8.81 8.81 0 0025.19 6.845a5.504 5.504 0 01-4.373 2.708 8.81 8.81 0 00-8.127 7.409 5.504 5.504 0 01-3.1 4.105 8.81 8.81 0 00-4.902 9.844A5.504 5.504 0 013.28 35.86a8.81 8.81 0 00-1.014 10.95 5.503 5.503 0 01.474 5.122A8.81 8.81 0 005.75 62.51a5.504 5.504 0 012.292 4.604 8.811 8.811 0 006.628 8.776 5.502 5.502 0 012.942 1.921L8.41 100.023c-1.29 3.113 1.629 6.319 4.847 5.331l10.073-3.091a.643.643 0 01.756.313l4.937 9.309c1.58 2.977 5.909 2.767 7.197-.342l9.59-23.152c.126-.004.252-.004.377 0l9.59 23.152c1.29 3.114 5.62 3.315 7.197.342l4.937-9.309a.643.643 0 01.756-.313l10.073 3.091c3.22.988 6.136-2.219 4.848-5.33l-9.202-22.213a5.501 5.501 0 012.942-1.921 8.81 8.81 0 006.628-8.776 5.504 5.504 0 012.293-4.605 8.81 8.81 0 003.009-10.578 5.509 5.509 0 01.475-5.122zm-56.598 63.455a.641.641 0 01-1.16.056l-4.938-9.309a3.987 3.987 0 00-4.686-1.941l-10.072 3.09a.64.64 0 01-.782-.86l8.163-19.708a8.807 8.807 0 008.162 3.55 5.506 5.506 0 014.796 1.859 8.812 8.812 0 006.666 3.053c.788 0 1.581-.11 2.358-.326l-8.506 20.535zm46.586-8.103L69.649 99.07a3.988 3.988 0 00-4.686 1.941l-4.937 9.308a.641.641 0 01-1.162-.055l-8.504-20.53A8.805 8.805 0 0059.382 87a5.502 5.502 0 014.797-1.858 8.801 8.801 0 008.162-3.55l8.163 19.707a.642.642 0 01-.782.861zm7.216-57.177a8.842 8.842 0 00-.762 8.227 5.485 5.485 0 01-1.874 6.585 8.841 8.841 0 00-3.683 7.397 5.485 5.485 0 01-4.126 5.463 8.84 8.84 0 00-5.459 4.17l-.01.017a8.848 8.848 0 00-.637 1.38 5.482 5.482 0 01-5.82 3.604 8.84 8.84 0 00-7.706 2.985 5.485 5.485 0 01-6.73 1.258 8.836 8.836 0 00-2.45-.861 8.833 8.833 0 00-3.365 0l-.012.003a8.851 8.851 0 00-2.435.858 5.485 5.485 0 01-6.73-1.258 8.84 8.84 0 00-7.705-2.985 5.485 5.485 0 01-5.82-3.604 8.847 8.847 0 00-.637-1.378l-.012-.02a8.84 8.84 0 00-5.458-4.17 5.485 5.485 0 01-4.125-5.462 8.842 8.842 0 00-3.683-7.397 5.485 5.485 0 01-1.874-6.585 8.841 8.841 0 00-.762-8.228 5.484 5.484 0 01.632-6.816 8.842 8.842 0 002.261-7.948 5.485 5.485 0 013.051-6.128 8.842 8.842 0 004.98-6.594 5.484 5.484 0 015.06-4.612 8.84 8.84 0 007.025-4.35 5.485 5.485 0 016.383-2.473c2.795.868 5.83.3 8.123-1.518a5.485 5.485 0 016.846 0 8.84 8.84 0 008.122 1.518 5.485 5.485 0 016.384 2.473 8.842 8.842 0 007.025 4.35 5.485 5.485 0 015.06 4.612 8.843 8.843 0 004.98 6.594 5.484 5.484 0 013.05 6.128 8.841 8.841 0 002.262 7.948 5.486 5.486 0 01.631 6.817z" fill="#000" fill-opacity=".2"/><path d="M14.372 42.779a1.67 1.67 0 001.862-1.454c1.844-14.988 14.64-26.29 29.767-26.29 15.133 0 27.93 11.308 29.768 26.305a1.67 1.67 0 003.315-.407C77.041 24.265 62.818 11.696 46 11.696c-16.81 0-31.031 12.562-33.081 29.222a1.67 1.67 0 001.453 1.86zM77.63 47.26a1.672 1.672 0 00-1.861 1.455C73.93 63.712 61.134 75.021 46 75.021c-15.127 0-27.924-11.303-29.767-26.293a1.67 1.67 0 00-3.315.408C14.967 65.796 29.188 78.36 46 78.36c16.818 0 31.041-12.57 33.083-29.239a1.67 1.67 0 00-1.454-1.86z" fill="#000" fill-opacity=".2"/><path d="M69.58 38.137a3.202 3.202 0 00-2.958-2.231l-13.093-.47-4.492-12.307A3.201 3.201 0 0046 21.006a3.201 3.201 0 00-3.036 2.123l-4.493 12.307-13.092.47a3.202 3.202 0 00-2.958 2.23 3.202 3.202 0 001.081 3.545l10.316 8.075-3.599 12.597a3.201 3.201 0 001.209 3.503 3.201 3.201 0 003.704.066L46 58.606l10.868 7.316a3.201 3.201 0 003.704-.066 3.201 3.201 0 001.208-3.503l-3.599-12.597 10.316-8.076a3.201 3.201 0 001.082-3.543zM56.067 47.17a3.22 3.22 0 00-1.116 3.433l3.538 12.383-10.683-7.191A3.227 3.227 0 0046 55.242c-.629 0-1.257.185-1.805.554l-10.684 7.19 3.538-12.382a3.22 3.22 0 00-1.115-3.433l-10.141-7.939 12.87-.462a3.22 3.22 0 002.92-2.121L46 24.551l4.416 12.098a3.219 3.219 0 002.92 2.121l12.87.462-10.14 7.939z" fill="#000" fill-opacity=".2"/></svg>