<svg viewBox="0 0 100 54" fill="none" xmlns="http://www.w3.org/2000/svg"><path d="M63.612 25.83c.645-.705.737-1.671.203-2.16-.532-.487-1.487-.311-2.132.394l-1.11 1.212c.79.533 1.53 1.026 2.199 1.471l.84-.917zm3.226 1.613c.645-.705.737-1.67.203-2.16-.532-.487-1.487-.311-2.132.394l-1.416 1.547a73.025 73.025 0 002.232 1.433l1.113-1.214zm3.225 1.613c.646-.705.738-1.671.204-2.16-.533-.487-1.488-.311-2.132.394l-1.446 1.579c.749.072 1.89.164 3.3.266l.074-.08zM52.41 19.729c2.339 1.601 4.947 3.379 7.258 4.937l1.505-1.505s-3.19-2.171-6.011-4.102c-.828.118-1.739.334-2.752.67zM26.722 46.317c.632-1.332 1.752-4.302 1.47-6.648-.307-.373-1.433-1.563-4.996-4.312a9.677 9.677 0 01-8.882 13.517 9.676 9.676 0 01-9.677-9.677 9.677 9.677 0 019.677-9.677c.43 0 .852.037 1.266.092-1.929-1.538-3.516-2.954-4.734-4.288C4.621 26.875 0 32.49 0 39.198c0 7.904 6.408 14.314 14.314 14.314 5.312 0 9.937-2.9 12.408-7.195z" fill="#D32420"/><path d="M15.164 32.831c-.28-.037-.558-.085-.848-.085a6.458 6.458 0 00-6.452 6.451 6.458 6.458 0 006.452 6.452 6.458 6.458 0 006.451-6.452c0-.862-.176-1.682-.485-2.435l-3.416 4.411a3.203 3.203 0 01-2.554 1.25 3.206 3.206 0 01-1.972-.674 3.23 3.23 0 01-.576-4.526l3.4-4.392zm69.716-9.762c-5.035 0-9.481 2.47-12.23 6.253 2.363.16 5.052.33 7.632.489a9.515 9.515 0 014.597-1.18c5.277 0 9.556 4.28 9.556 9.557s-4.279 9.556-9.556 9.556a9.533 9.533 0 01-7.302-3.398c-2.22-.658-4.851-1.376-7.186-1.85 1.856 6.25 7.637 10.812 14.488 10.812 8.351 0 15.12-6.77 15.12-15.12 0-8.352-6.77-15.12-15.12-15.12zM14.312 10.093c2.088-1.629 4.923-3.27 8.904-4.87L25.908.489 22.19 2.17c-4.454 2.703-6.71 5.618-7.879 7.924z" fill="#D32420"/><path d="M89.52 7.04h-.004a61.055 61.055 0 00-3.026-.08c-4.984 0-8.382.69-10.685 1.554-2.066 2.138-7.429 7.437-9.987 7.563l-.197.004c-3.035 0-13.194-3.395-13.626-3.54a.805.805 0 01-.064-1.503l4.016-1.75c-1.1-1.113-1.711-1.24-1.711-1.24C48.969 5.34 41.316 4.97 37.512 4.97c-1.44 0-2.33.053-2.33.053.028-.527-.601-.717-1.528-.717-2.439 0-6.939 1.322-6.939 1.322a58.027 58.027 0 00-4.805 1.895c-4.337 1.942-6.985 3.9-8.732 5.723-1.451 1.514-2.298 2.935-2.997 4.177-1.187 2.112-.788 4.21 2.563 7.55 1.26 1.257 2.944 2.694 5.12 4.373.211.162.419.324.64.491l.11.086-.347.448-.147.189-.495.637-.389.503-1.048 1.355-3.358 4.337a2.28 2.28 0 103.607 2.792l3.364-4.343 1.04-1.344.452-.582.494-.639.087-.113.406-.524c.04.029.073.055.111.084.228.169.431.324.646.485 2.927 2.208 4.593 3.63 5.519 4.513 1.14 1.088 1.185 1.377 1.185 1.377.673 3.663-1.746 8.3-1.746 8.3h28.628c2.89 0 4.032-1.613 4.032-1.613s1.949-2.42 3.63-4.838c.286-.415 1.027-.588 2.054-.588.997 0 2.27.166 3.66.424 1.985.37 4.21.931 6.26 1.507a135.958 135.958 0 016.755 2.085l.004-.03c.593.18 1.211.305 1.863.305a6.46 6.46 0 006.459-6.46c0-3.414-2.656-6.18-6.011-6.414l.008-.045s-1.947-.113-4.62-.276l-2.452-.151c-2.16-.136-4.512-.287-6.613-.433a430.83 430.83 0 01-3.045-.22c-1.74-.136-2.97-.252-3.182-.323l-.046-.025c-.116-.048-.383-.203-.758-.435-.541-.336-1.3-.828-2.227-1.44l-.72-.477a415.275 415.275 0 01-3.165-2.122 1474.88 1474.88 0 01-9.513-6.488c1.663-.74 3.08-1.239 4.308-1.555 1.206-.31 2.23-.444 3.11-.444 2.923 0 4.302 1.436 5.837 2.502.823.57 1.686.761 2.47.761 1.567 0 2.822-.761 2.822-.761C93.94 7.14 89.657 7.04 89.519 7.04zM43.195 31.515l5.637-5.018a1.614 1.614 0 012.145 2.41l-4.995 4.446-2.787-1.838zm.798-8.244a1.614 1.614 0 012.145 2.41l-5.016 4.466-2.787-1.838 5.658-5.038zm11.823 8.862l-4.976 4.429-2.787-1.839 5.616-5a1.614 1.614 0 012.147 2.41z" fill="#D32420"/><path d="M65.62 15.277l.001-.008.115-.802c.501-.024 1.306-.46 2.267-1.14.776-.55 1.653-1.26 2.555-2.046l.037-.033c.18-.156.36-.313.54-.474a2.184 2.184 0 01-.237.045c-.27.037-.686.06-1.376.06h-.021c-2.658 0-7.972-.315-10.572-.48l-1.047-.068c-.094-.007-.184-.014-.25-.016l-.586.254-2.528 1.103a160.802 160.802 0 005.271 1.575c1.182.327 2.317.62 3.31.838.76.168 1.414.284 1.936.339.207.022.426.05.583.05v.803h.002z" fill="#D32420"/></svg>