<svg width="40" height="40" fill="none" xmlns="http://www.w3.org/2000/svg"><path d="M31.613 24.778c-.82-.852-1.807-1.308-2.854-1.308-1.038 0-2.034.447-2.887 1.3l-2.668 2.66c-.22-.119-.439-.229-.65-.338-.304-.152-.59-.296-.835-.448-2.5-1.587-4.77-3.655-6.949-6.332-1.055-1.334-1.764-2.456-2.279-3.596.692-.633 1.334-1.292 1.959-1.925.236-.236.472-.481.709-.717 1.773-1.773 1.773-4.07 0-5.842l-2.305-2.305a34.906 34.906 0 01-.785-.802 39.87 39.87 0 00-1.587-1.57c-.82-.811-1.798-1.242-2.828-1.242-1.03 0-2.027.431-2.87 1.241l-.018.017-2.87 2.896a6.176 6.176 0 00-1.832 3.926c-.203 2.465.523 4.761 1.08 6.264 1.368 3.69 3.411 7.108 6.459 10.772 3.698 4.416 8.147 7.902 13.229 10.359 1.942.92 4.534 2.01 7.43 2.195.177.008.362.017.531.017 1.95 0 3.588-.7 4.871-2.094.009-.017.026-.025.034-.042.44-.532.946-1.013 1.477-1.528.364-.346.735-.71 1.098-1.09.836-.869 1.275-1.882 1.275-2.92 0-1.047-.448-2.052-1.3-2.896l-4.635-4.652zm3.022 8.89c-.008 0-.008.008 0 0-.33.355-.667.675-1.03 1.03a22.198 22.198 0 00-1.63 1.688c-.852.912-1.857 1.343-3.174 1.343-.126 0-.261 0-.388-.009-2.507-.16-4.837-1.14-6.585-1.975-4.778-2.313-8.974-5.597-12.46-9.76-2.88-3.47-4.804-6.677-6.079-10.122-.785-2.102-1.072-3.74-.946-5.284A3.875 3.875 0 013.508 8.07l2.88-2.879c.413-.388.852-.6 1.283-.6.531 0 .962.322 1.232.592l.025.025c.515.481 1.005.98 1.52 1.511.262.27.532.54.802.82l2.305 2.304c.895.895.895 1.722 0 2.617-.245.245-.481.49-.726.726a44.048 44.048 0 01-2.12 2.06c-.016.017-.033.025-.041.042-.727.726-.591 1.435-.44 1.917l.026.076c.6 1.452 1.444 2.82 2.727 4.449l.008.008c2.33 2.87 4.787 5.108 7.497 6.822.346.219.7.396 1.038.565.304.152.591.296.836.448.034.016.068.042.101.059.287.143.558.21.836.21.7 0 1.14-.438 1.283-.582l2.888-2.887c.287-.287.743-.633 1.274-.633.524 0 .954.329 1.216.616l.017.017 4.652 4.652c.87.86.87 1.747.008 2.642zM21.617 9.515a10.706 10.706 0 015.825 3.022 10.761 10.761 0 013.022 5.825c.093.558.574.946 1.123.946.068 0 .127-.009.194-.017a1.14 1.14 0 00.937-1.317 13.02 13.02 0 00-3.655-7.05 13.02 13.02 0 00-7.05-3.655 1.146 1.146 0 00-1.316.929c-.11.616.295 1.216.92 1.317zm18.336 8.13c-.751-4.407-2.828-8.417-6.02-11.608-3.19-3.191-7.2-5.268-11.607-6.02a1.136 1.136 0 00-1.309.929 1.145 1.145 0 00.937 1.317c3.934.667 7.522 2.533 10.376 5.378 2.853 2.853 4.71 6.441 5.378 10.375.092.558.574.946 1.122.946.068 0 .127-.009.195-.017a1.119 1.119 0 00.928-1.3z" fill="#000"/></svg>