<svg viewBox="0 0 114 114" fill="none" xmlns="http://www.w3.org/2000/svg"><g clip-path="url(#clip0)"><path d="M57 84.161l3.447 10.609H71.6l-9.024 6.556 3.447 10.609L57 105.379l-9.024 6.556 3.447-10.609-9.025-6.556h11.155L57 84.16zm40.724 0l3.447 10.609h11.155l-9.024 6.556 3.447 10.609-9.025-6.556-9.024 6.556 3.447-10.609-9.024-6.556h11.154l3.447-10.609zm-81.45 0L12.827 94.77H1.673l9.024 6.556-3.447 10.609 9.024-6.556 9.024 6.556-3.446-10.609 9.024-6.556H19.72l-3.446-10.61z" fill="#FBA761" fill-opacity=".03"/><path d="M101.618 36.195a5.909 5.909 0 00-5.909-5.91H65.924s2.528-3.09 3.569-10.374c1.785-12.493-2.696-17.291-7.14-17.833a1.858 1.858 0 00-2.077 1.848S59.154 15.602 57 19.91c-5.355 10.708-19.198 16.063-19.198 16.063v38.06s3.135 3.523 9.454 3.523h43.726a5.909 5.909 0 100-11.818h2.364a5.909 5.909 0 100-11.818h2.363a5.909 5.909 0 100-11.818 5.908 5.908 0 005.909-5.908z" fill="#FCE780" fill-opacity=".03"/><path d="M101.618 36.195a5.909 5.909 0 00-5.909-5.91H65.924s2.528-3.09 3.569-10.374c1.785-12.493-2.696-17.291-7.14-17.833a1.858 1.858 0 00-2.077 1.848S59.154 15.602 57 19.91c-5.355 10.708-19.198 16.063-19.198 16.063v38.06s3.135 3.523 9.454 3.523h43.726a5.909 5.909 0 100-11.818h2.364a5.909 5.909 0 100-11.818h2.363a5.909 5.909 0 100-11.818 5.908 5.908 0 005.909-5.908z" fill="#FEE2CA" fill-opacity=".03"/><path d="M90.983 73.988H47.257c-6.319 0-9.454-3.523-9.454-3.523v3.57s3.135 3.522 9.454 3.522h43.726a5.909 5.909 0 005.634-7.694 5.911 5.911 0 01-5.634 4.125zm4.727-36.611h-7.024v4.727h7.024a5.909 5.909 0 005.414-8.273 5.908 5.908 0 01-5.414 3.546zm0 11.818h-7.024v4.727h7.024a5.909 5.909 0 005.414-8.273 5.908 5.908 0 01-5.414 3.546zm-2.364 11.817h-6v4.727h6a5.909 5.909 0 005.414-8.272 5.907 5.907 0 01-5.414 3.545z" fill="#FDD0AB" fill-opacity=".03"/><path d="M34.088 77.264H20.485a4.534 4.534 0 01-4.534-4.535V38.723a4.534 4.534 0 014.534-4.534h13.603a4.534 4.534 0 014.534 4.534v34.006a4.534 4.534 0 01-4.534 4.535z" fill="#7FDECF" fill-opacity=".03"/><path d="M23.09 71.813c-.985 0-1.785-.8-1.785-1.785V34.189h-.82a4.534 4.534 0 00-4.534 4.534V72.73a4.534 4.534 0 004.534 4.535h13.603a4.534 4.534 0 004.534-4.535v-.916H23.09z" fill="#24BFB2" fill-opacity=".03"/><path d="M27.286 70.462a3.4 3.4 0 100-6.802 3.4 3.4 0 000 6.802z" fill="#F2EDEC" fill-opacity=".03"/><path d="M27.287 61.988a5.08 5.08 0 00-5.074 5.073 5.08 5.08 0 005.074 5.074 5.08 5.08 0 005.073-5.074 5.08 5.08 0 00-5.073-5.073zm0 6.801a1.73 1.73 0 01-1.728-1.727 1.73 1.73 0 011.728-1.727 1.73 1.73 0 011.727 1.727 1.73 1.73 0 01-1.727 1.727zM71.6 93.097h-9.938l-3.071-9.453a1.689 1.689 0 00-1.592-1.156 1.69 1.69 0 00-1.591 1.156l-3.071 9.453h-9.94a1.673 1.673 0 00-.983 3.027l8.041 5.842-3.071 9.452c-.215.66.01 1.402.555 1.831a1.69 1.69 0 002.02.04l8.04-5.842 8.04 5.842a1.687 1.687 0 002.094-.103 1.685 1.685 0 00.481-1.768l-3.071-9.452 8.04-5.842a1.673 1.673 0 00-.982-3.027zm-10.007 6.876a1.673 1.673 0 00-.608 1.87l1.856 5.711-4.858-3.529a1.686 1.686 0 00-1.967 0l-4.858 3.529 1.855-5.711a1.673 1.673 0 00-.608-1.87l-4.858-3.53h6.005c.725 0 1.367-.466 1.592-1.156l1.855-5.711 1.856 5.711c.224.69.866 1.156 1.591 1.156h6.005l-4.858 3.53zm52.325-5.72a1.674 1.674 0 00-1.592-1.156h-9.938l-3.072-9.453a1.689 1.689 0 00-1.591-1.156c-.717 0-1.37.475-1.591 1.156l-3.072 9.453h-9.938a1.673 1.673 0 00-.984 3.027l8.04 5.842-3.07 9.452c-.215.66.01 1.402.555 1.831a1.69 1.69 0 002.02.04l8.04-5.842 8.04 5.842a1.687 1.687 0 002.094-.103 1.684 1.684 0 00.481-1.768l-3.071-9.452 8.04-5.842a1.673 1.673 0 00.609-1.87zm-11.599 5.72a1.673 1.673 0 00-.608 1.871l1.855 5.711-4.858-3.53a1.673 1.673 0 00-1.967 0l-4.858 3.53 1.856-5.711a1.673 1.673 0 00-.608-1.871l-4.858-3.53h6.005c.725 0 1.367-.466 1.591-1.156l1.856-5.71 1.856 5.71c.224.69.866 1.156 1.591 1.156h6.005l-4.858 3.53zm-71.443-6.876h-9.939l-3.071-9.453a1.673 1.673 0 00-3.183 0l-3.071 9.453H1.673a1.673 1.673 0 00-.983 3.027l8.04 5.842-3.07 9.452a1.673 1.673 0 002.574 1.871l8.04-5.842 8.041 5.842a1.687 1.687 0 002.094-.103 1.685 1.685 0 00.48-1.768l-3.07-9.452 8.04-5.842a1.673 1.673 0 00-.983-3.027zm-10.008 6.876a1.673 1.673 0 00-.607 1.87l1.855 5.711-4.858-3.529a1.686 1.686 0 00-1.967 0l-4.858 3.529 1.856-5.711a1.673 1.673 0 00-.608-1.87l-4.858-3.53h6.005c.725 0 1.367-.467 1.591-1.156l1.856-5.711 1.855 5.71c.224.69.867 1.157 1.592 1.157h6.005l-4.858 3.53z" fill="#000" fill-opacity=".05"/><path d="M47.257 79.23h43.726c4.18 0 7.581-3.401 7.581-7.582a7.55 7.55 0 00-1.891-5.005 7.592 7.592 0 004.255-6.813 7.551 7.551 0 00-1.892-5.005 7.59 7.59 0 004.255-6.813 7.572 7.572 0 00-2.836-5.909 7.572 7.572 0 002.836-5.908c0-4.181-3.401-7.582-7.582-7.582H68.796c.836-1.825 1.802-4.603 2.354-8.465 1.282-8.975-.655-13.74-2.506-16.155C67.077 1.948 64.972.71 62.557.417c-2.037-.25-3.898 1.368-3.953 3.415-.313 3.218-1.459 12.047-3.1 15.33-4.217 8.434-14.27 13.463-17.376 14.854a6.179 6.179 0 00-4.04-1.5H20.486a6.214 6.214 0 00-6.207 6.207v34.006a6.214 6.214 0 006.207 6.208h13.603c1.831 0 3.48-.798 4.617-2.064 1.766 1.115 4.616 2.357 8.552 2.357zm11.24-58.57c2.267-4.536 3.398-16.085 3.445-16.575.005-.053.008-.106.008-.16 0-.057.021-.105.064-.143a.166.166 0 01.138-.043c1.047.127 2.563.628 3.835 2.289 1.461 1.907 2.968 5.822 1.85 13.647-.947 6.632-3.194 9.533-3.208 9.551-.877 1.072-.087 2.733 1.295 2.733H95.71a4.24 4.24 0 014.236 4.236 4.24 4.24 0 01-4.236 4.236h-7.03a1.673 1.673 0 100 3.346h7.03a4.24 4.24 0 014.236 4.236 4.24 4.24 0 01-4.236 4.235h-7.03a1.673 1.673 0 100 3.347h4.666a4.24 4.24 0 014.236 4.236 4.24 4.24 0 01-4.236 4.235h-5.95a1.673 1.673 0 100 3.347h3.587a4.24 4.24 0 014.235 4.235 4.24 4.24 0 01-4.236 4.236H47.258c-3.454 0-5.795-1.157-7.066-2.025.068-.367.105-.744.105-1.13V38.723a6.18 6.18 0 00-.29-1.877c3.92-1.8 13.957-7.12 18.49-16.187zM34.088 75.59H20.485a2.864 2.864 0 01-2.86-2.86V38.722a2.864 2.864 0 012.86-2.861h13.603c.799 0 1.521.33 2.04.86v37.313c0 .2.037.396.106.58a2.853 2.853 0 01-2.146.975z" fill="#000" fill-opacity=".05"/></g><defs><clipPath id="clip0"><path fill="#fff" d="M0 0h114v114H0z"/></clipPath></defs></svg>