<svg width="114" height="114" fill="none" xmlns="http://www.w3.org/2000/svg"><g clip-path="url(#clip0)" fill="#000003" fill-opacity=".05"><path d="M103.845 19.685C88.16 15.388 72.383 8.695 58.219.333a2.397 2.397 0 00-2.438 0C41.21 8.936 26.284 15.266 10.154 19.685a2.398 2.398 0 00-1.764 2.313v24.503c0 25.232 11.64 41.934 21.405 51.501C40.308 108.303 52.555 114 57 114c4.446 0 16.692-5.697 27.205-15.998 9.765-9.567 21.405-26.27 21.405-51.501V21.998a2.4 2.4 0 00-1.765-2.313zM100.814 46.5c0 23.567-10.857 39.152-19.966 48.076C70.51 104.706 59.457 109.204 57 109.204c-2.456 0-13.51-4.498-23.849-14.628-9.108-8.924-19.965-24.51-19.965-48.076V23.818C28.61 19.438 42.976 13.327 57 5.177c13.674 7.934 28.756 14.35 43.813 18.64V46.5z"/><path d="M35.744 23.55a2.398 2.398 0 00-3.11-1.352 195.096 195.096 0 01-13.069 4.618c-1 .314-1.68 1.24-1.68 2.288v9.26a2.398 2.398 0 004.796 0v-7.507a199.9 199.9 0 0011.711-4.197 2.397 2.397 0 001.352-3.11zm4.556.455c.322 0 .648-.065.962-.201l.044-.02a2.393 2.393 0 001.228-3.156 2.403 2.403 0 00-3.165-1.231l-.038.016a2.392 2.392 0 00-1.232 3.155 2.4 2.4 0 002.201 1.437zm45.271 53.32a2.399 2.399 0 00-3.32.695 58.37 58.37 0 01-6.89 8.608 61.252 61.252 0 01-6.879 6.12 2.398 2.398 0 002.908 3.814 66.105 66.105 0 007.418-6.6 63.103 63.103 0 007.46-9.318 2.398 2.398 0 00-.697-3.32zM62.913 96.509l-.138.08a2.398 2.398 0 002.403 4.151l.158-.093a2.398 2.398 0 00-2.423-4.138zM40.654 52.106a7.745 7.745 0 00-5.513-2.283 7.75 7.75 0 00-5.514 2.283c-3.04 3.04-3.04 7.988 0 11.028l14.16 14.16a7.748 7.748 0 005.514 2.282c2.082 0 4.04-.81 5.514-2.283l29.56-29.56c3.04-3.041 3.04-7.988 0-11.027a7.746 7.746 0 00-5.515-2.284 7.746 7.746 0 00-5.514 2.284L49.3 60.75l-8.646-8.645zm36.083-12.009a2.982 2.982 0 012.123-.879 2.98 2.98 0 012.123.879 3.005 3.005 0 010 4.245l-29.56 29.56a2.982 2.982 0 01-2.123.879 2.983 2.983 0 01-2.122-.88l-14.16-14.158a3.005 3.005 0 010-4.245 2.984 2.984 0 012.123-.88 2.98 2.98 0 012.122.88l10.342 10.34a2.399 2.399 0 003.39 0l25.742-25.741z"/></g><defs><clipPath id="clip0"><path fill="#fff" d="M0 0h114v114H0z"/></clipPath></defs></svg>